<?xml version="1.0" standalone="no"?>
<!DOCTYPE svg PUBLIC "-//W3C//DTD SVG 20010904//EN"
 "http://www.w3.org/TR/2001/REC-SVG-20010904/DTD/svg10.dtd">
<svg version="1.0" xmlns="http://www.w3.org/2000/svg"
 width="1280.000000pt" height="1280.000000pt" viewBox="0 0 1280.000000 1280.000000"
 preserveAspectRatio="xMidYMid meet">

<g transform="translate(0.000000,1280.000000) scale(0.100000,-0.100000)"
fill="#000000" stroke="none">
<path d="M0 12176 l0 -624 43 -7 c23 -4 50 -12 60 -17 11 -6 23 -6 30 0 27 21
91 8 135 -28 24 -19 53 -34 65 -34 56 2 68 5 62 14 -3 6 1 7 9 4 15 -6 20 -18
17 -37 -1 -5 17 -7 39 -6 23 2 44 -1 48 -7 7 -10 22 -14 65 -15 23 0 47 19 47
37 0 7 13 20 28 28 26 13 31 13 45 -1 9 -9 30 -18 46 -19 16 -1 43 -14 60 -29
27 -25 30 -32 25 -69 -5 -31 -1 -50 15 -76 32 -55 46 -317 21 -399 -37 -122
-136 -315 -184 -360 -16 -15 -49 -29 -83 -36 l-58 -11 4 -43 c3 -49 -18 -81
-56 -81 -14 0 -23 -6 -23 -15 0 -8 3 -15 8 -15 4 0 8 -12 8 -27 3 -62 23 -200
34 -230 6 -17 18 -34 26 -37 18 -7 18 -62 0 -69 -8 -3 -20 -21 -27 -40 -7 -19
-25 -42 -40 -51 -27 -16 -34 -15 -146 14 -183 47 -226 59 -234 67 -5 5 -9 51
-10 103 -1 107 -14 140 -54 140 l-25 0 0 -1477 0 -1476 318 6 c435 10 1262
-18 1453 -49 31 -4 37 -2 42 15 3 11 21 28 41 38 20 9 35 22 32 29 -2 6 1 17
7 23 15 15 -7 15 -33 -1 -27 -17 -37 -2 -15 22 13 15 31 20 65 20 35 0 50 4
54 16 9 24 0 29 -45 28 -21 -1 -39 3 -39 7 0 5 32 24 70 43 72 34 74 46 9 46
-37 0 -38 17 -1 31 15 5 41 16 57 23 17 8 43 19 58 25 34 14 27 31 -14 31 -31
0 -39 14 -13 24 9 3 33 6 54 6 21 0 42 5 45 10 4 6 -12 10 -39 10 -25 0 -46 5
-46 10 0 6 17 10 38 10 21 0 47 6 57 14 18 13 18 14 -7 9 -33 -6 -45 13 -22
38 19 21 83 54 129 65 27 7 28 8 8 11 -51 9 -11 33 56 33 29 0 32 2 21 15 -7
8 -19 15 -27 15 -8 0 -11 5 -7 11 4 7 22 9 48 5 23 -4 53 -3 66 2 26 10 25 11
-35 57 -18 14 -14 14 47 9 37 -4 74 -4 84 0 15 6 15 8 -2 28 l-19 21 43 -7
c49 -7 50 8 2 19 -17 4 -30 11 -30 16 0 13 91 -1 119 -18 37 -23 47 -1 16 36
-37 44 -12 40 60 -8 32 -22 89 -49 127 -62 84 -27 83 -36 -1 -14 -37 9 -76 13
-97 9 -19 -3 -40 -2 -47 4 -7 5 -21 6 -32 1 -19 -7 -18 -8 4 -8 13 -1 38 -10
55 -20 17 -10 78 -38 136 -60 102 -40 164 -70 147 -71 -5 0 -18 5 -30 12 -12
6 -62 26 -112 44 -141 50 -229 85 -238 93 -10 10 -57 2 -57 -10 0 -5 8 -9 19
-9 10 0 34 -6 52 -14 34 -15 34 -15 -35 -15 -37 0 -70 -2 -73 -4 -2 -3 20 -12
51 -21 30 -9 58 -21 62 -27 3 -6 20 -17 38 -25 17 -7 25 -13 18 -14 -7 0 -26
7 -42 15 -16 8 -65 23 -110 34 -103 24 -103 5 0 -26 79 -24 120 -48 54 -32
-88 22 -162 32 -180 24 -16 -7 -14 -9 16 -18 19 -5 53 -15 75 -23 l40 -14 -55
6 c-30 3 -84 7 -120 9 -61 3 -62 0 -2 -20 12 -4 22 -12 22 -17 0 -6 -7 -8 -15
-4 -8 3 -15 1 -15 -4 0 -14 23 -13 37 1 7 7 19 9 28 5 14 -5 15 -9 5 -21 -8
-9 -32 -14 -78 -13 -89 0 -94 0 -87 -11 3 -5 34 -13 70 -16 97 -11 89 -25 -14
-25 -50 0 -91 -4 -91 -9 0 -5 -12 -12 -27 -16 -22 -5 -24 -8 -12 -17 11 -7 8
-9 -9 -5 -21 5 -23 3 -18 -19 5 -19 3 -24 -13 -24 -11 0 -23 -5 -27 -11 -5 -8
3 -10 27 -6 19 4 40 3 48 -2 10 -7 -4 -12 -47 -17 -34 -3 -66 -12 -72 -19 -6
-7 -20 -10 -32 -7 -15 3 -19 1 -16 -9 4 -13 30 -18 110 -22 15 -1 24 -5 21
-10 -3 -5 -35 -6 -72 -3 -45 5 -61 4 -51 -3 12 -8 10 -13 -13 -31 -19 -15 -26
-28 -22 -40 4 -12 0 -20 -10 -22 -13 -3 -13 -6 0 -32 16 -30 12 -46 -10 -46
-8 0 -25 -4 -39 -10 l-25 -9 24 -43 c18 -31 21 -46 13 -55 -6 -7 -15 -13 -20
-13 -19 0 -97 -55 -98 -68 0 -9 7 -11 20 -7 11 4 20 2 20 -4 0 -9 -8 -12 -35
-11 -10 1 -65 -31 -65 -37 0 -3 8 -12 18 -19 16 -13 16 -13 -3 -14 -19 -1 -18
-2 4 -21 23 -19 23 -21 8 -37 -16 -15 -17 -15 -17 1 0 22 -55 24 -64 2 -4 -11
1 -15 19 -15 29 0 33 -17 8 -36 -16 -12 -15 -13 10 -14 15 0 27 -4 27 -10 0
-5 -6 -10 -12 -10 -7 0 -33 -13 -58 -30 -24 -16 -46 -27 -48 -25 -3 2 -2 16 2
30 4 16 13 25 26 25 11 0 20 7 20 15 0 8 -9 15 -20 15 -16 0 -19 5 -16 25 6
31 0 35 -60 36 -27 0 -85 7 -129 14 -44 7 -129 16 -190 20 -60 3 -129 7 -152
9 -24 2 -43 -1 -43 -7 0 -6 -16 -7 -42 -2 -24 4 -89 9 -145 11 -81 2 -103 0
-103 -10 0 -20 -47 -26 -62 -9 -6 8 -21 12 -32 9 -11 -3 -26 0 -34 7 -11 9
-17 8 -26 -3 -9 -12 -42 -15 -166 -15 -85 0 -161 4 -167 8 -9 5 -13 3 -13 -7
0 -21 -19 -20 -49 0 -19 14 -25 14 -32 3 -8 -12 -10 -12 -18 0 -7 11 -15 12
-38 3 -44 -17 -144 -21 -150 -6 -2 7 -11 15 -19 18 -23 9 -14 -2133 9 -2309 9
-66 16 -129 17 -139 0 -36 -15 -5 -26 52 -9 43 -12 -527 -13 -2280 l-1 -2338
6400 0 6400 0 0 1868 c-1 1747 -2 1868 -18 1888 -21 25 -81 55 -96 48 -6 -3
-2 2 9 11 11 9 39 21 63 27 l42 10 0 2743 c0 2429 -2 2744 -15 2749 -19 7 -19
56 0 82 12 16 14 67 15 287 0 147 -3 267 -7 267 -5 0 -60 -26 -123 -58 -126
-62 -160 -97 -160 -158 0 -35 13 -44 27 -21 13 21 75 54 114 61 21 4 42 13 49
21 16 19 34 19 49 1 9 -11 6 -18 -13 -32 l-26 -19 16 -58 c22 -86 18 -103 -28
-99 -37 3 -38 3 -50 -42 -7 -25 -15 -46 -19 -46 -3 0 -7 -26 -7 -57 0 -43 -5
-60 -18 -70 -31 -23 -51 -15 -67 24 -19 48 -6 87 33 103 29 12 29 13 10 29
-18 15 -24 31 -21 57 0 6 15 17 31 24 17 7 29 17 27 23 -3 11 -96 48 -99 39
-1 -4 -3 -29 -4 -57 -11 -227 -38 -521 -48 -527 -28 -19 -31 3 -27 235 4 268
11 247 -86 252 -32 2 -74 6 -93 10 -47 9 -150 -19 -172 -46 -12 -14 -18 -39
-19 -73 -1 -68 -20 -118 -51 -136 -23 -12 -28 -12 -43 0 -14 12 -16 25 -12 75
12 129 20 171 35 188 9 10 16 41 18 77 3 66 45 207 72 238 9 11 35 43 57 71
69 88 108 77 141 -38 9 -31 22 -62 30 -70 11 -12 15 -11 23 12 6 15 17 71 26
124 21 131 43 163 89 130 20 -15 27 -55 13 -74 -5 -7 -6 -25 -3 -39 6 -22 9
-24 19 -12 7 8 32 20 57 27 56 16 67 25 85 68 10 25 22 35 45 39 38 8 103 80
95 105 -4 12 1 20 15 24 20 6 20 7 20 1251 l0 1244 -6400 0 -6400 0 0 -624z
m140 316 c0 -34 -30 -65 -54 -56 -19 7 -22 54 -4 72 7 7 22 12 35 12 19 0 23
-5 23 -28z m575 -212 c7 -22 -11 -53 -26 -45 -6 4 -6 49 0 63 4 10 21 -2 26
-18z m11019 -9 c3 -5 0 -11 -8 -14 -15 -6 -26 1 -26 15 0 11 27 10 34 -1z
m-10406 -213 c20 -20 14 -54 -12 -67 -50 -27 -92 8 -63 53 19 28 55 34 75 14z
m9642 -32 c0 -16 -18 -31 -27 -22 -8 8 5 36 17 36 5 0 10 -6 10 -14z m-9227
-101 c29 -28 33 -45 16 -77 -9 -16 -17 -19 -42 -14 -34 7 -77 42 -77 63 0 19
37 53 58 53 9 0 30 -11 45 -25z m8647 -65 c0 -11 -4 -20 -10 -20 -5 0 -10 9
-10 20 0 11 5 20 10 20 6 0 10 -9 10 -20z m-8226 -92 c7 -12 7 -26 0 -45 -8
-24 -15 -28 -43 -26 -35 1 -51 15 -51 45 0 44 70 63 94 26z m9201 -8 c8 -24
-1 -40 -21 -40 -20 0 -29 27 -14 45 17 20 27 19 35 -5z m-9785 -5 c66 -9 201
-42 243 -60 69 -28 56 -43 -133 -153 -41 -24 -97 -61 -125 -81 -70 -54 -87
-61 -144 -61 -59 0 -112 25 -165 76 l-36 35 20 40 c12 22 22 57 23 77 2 37 2
37 50 40 26 2 47 8 47 13 0 24 59 69 89 69 17 0 31 5 31 11 0 6 11 8 28 5 15
-3 47 -8 72 -11z m1007 -113 c17 -11 34 -59 27 -77 -7 -16 -49 -31 -74 -26
-35 7 -41 60 -10 91 21 21 37 25 57 12z m-537 -29 c58 -23 129 -76 139 -104
10 -30 0 -53 -41 -87 -35 -30 -36 -48 -1 -57 15 -3 58 -39 96 -78 69 -72 109
-136 121 -193 4 -17 21 -44 37 -60 31 -29 69 -96 84 -144 4 -14 22 -56 40 -95
18 -38 41 -92 50 -120 9 -27 32 -76 51 -108 20 -32 37 -66 38 -75 3 -20 26
-29 26 -10 0 8 6 23 14 33 13 18 15 18 39 2 33 -22 46 -45 52 -99 3 -23 10
-47 15 -52 6 -6 10 -22 10 -38 0 -15 7 -31 15 -36 13 -6 14 -14 6 -34 -8 -23
-9 -43 -2 -91 0 -5 5 -6 10 -3 5 3 7 -32 5 -79 l-3 -84 39 -11 c21 -6 53 -22
70 -36 27 -23 30 -24 30 -7 0 65 37 113 86 113 16 0 129 -46 192 -77 38 -19
42 -48 12 -86 -22 -28 -25 -49 -10 -75 6 -9 16 -39 23 -66 12 -48 13 -49 77
-73 36 -13 85 -29 109 -34 25 -5 65 -25 89 -44 25 -19 55 -35 67 -35 26 0 45
-18 45 -42 0 -23 -42 -25 -64 -3 -20 20 -41 19 -87 -7 -34 -19 -40 -20 -61 -6
-53 34 -106 31 -87 -4 25 -46 -16 -92 -61 -68 -35 19 -21 78 22 93 15 5 -29
46 -50 47 -38 1 -70 31 -82 77 -7 26 -14 53 -14 58 -3 28 -19 56 -29 52 -8 -3
-11 -32 -8 -96 5 -141 -23 -168 -122 -115 -60 31 -76 29 -91 -16 -8 -27 -17
-36 -37 -38 -33 -4 -56 18 -69 67 -6 22 -17 42 -26 45 -33 13 -80 5 -108 -17
-26 -21 -28 -28 -22 -60 9 -48 30 -67 74 -67 20 0 51 -7 67 -16 18 -9 42 -13
58 -10 18 4 47 -2 75 -14 26 -11 65 -24 87 -29 22 -5 54 -14 70 -19 65 -22
407 -113 535 -143 129 -29 366 -70 497 -84 88 -10 97 -19 98 -99 1 -42 -3 -70
-11 -77 -17 -14 -84 -15 -179 -1 -174 24 -253 30 -332 24 -45 -4 -85 -11 -89
-15 -12 -12 26 -46 113 -103 82 -54 108 -73 167 -127 77 -69 98 -94 128 -146
34 -61 66 -101 81 -101 13 0 78 -31 110 -52 15 -11 27 -28 27 -39 0 -17 -7
-19 -65 -19 -35 0 -84 6 -107 14 -24 7 -73 23 -109 35 -36 12 -98 25 -137 30
-77 10 -135 37 -201 95 -42 37 -88 59 -103 50 -5 -4 -8 -19 -4 -34 3 -17 0
-32 -7 -38 -21 -17 -102 12 -153 54 -25 21 -70 57 -98 79 -94 73 -144 126
-175 189 -48 98 -105 134 -276 173 -155 35 -765 17 -765 -22 0 -7 -9 -24 -21
-39 -28 -35 -80 -36 -114 -1 -14 13 -25 31 -25 39 0 8 -9 18 -20 21 -50 16
-65 68 -32 116 9 15 33 51 54 82 20 30 55 69 77 87 53 43 55 65 4 55 -57 -10
-89 -31 -122 -78 -16 -23 -46 -58 -66 -77 -38 -36 -73 -97 -94 -161 -15 -46
-44 -59 -126 -59 -41 0 -83 -7 -115 -20 -58 -23 -150 -27 -150 -7 0 7 10 23
23 37 12 14 31 44 41 68 21 47 52 76 105 98 24 10 31 18 27 30 -3 8 -6 21 -6
28 0 7 -9 23 -20 36 -11 13 -20 26 -20 30 0 21 -47 18 -80 -5 -19 -13 -56 -29
-83 -36 -26 -6 -50 -15 -53 -20 -3 -5 -20 -9 -37 -9 -18 0 -50 -9 -72 -20 -41
-21 -65 -25 -65 -12 0 18 49 50 110 72 86 30 98 42 78 72 -17 26 -68 78 -77
79 -3 0 -15 3 -26 6 -11 2 -49 9 -85 14 -110 17 -105 8 -107 174 l-3 145 26 6
c29 7 47 -11 65 -66 12 -38 32 -65 29 -40 -4 28 0 41 10 35 5 -3 10 1 10 9 0
8 4 18 10 21 19 12 45 -14 58 -58 14 -45 33 -62 98 -81 12 -4 29 -15 39 -26
17 -18 16 -21 -3 -55 -12 -19 -18 -35 -13 -35 5 0 11 -9 14 -20 7 -26 57 -29
57 -3 0 9 9 27 21 39 l21 22 -20 20 c-12 12 -16 22 -10 24 8 3 8 10 0 24 -6
10 -12 16 -12 12 0 -9 -58 50 -70 73 -6 10 -19 19 -30 19 -10 0 -33 12 -50 26
-26 22 -31 33 -28 63 3 36 3 36 -37 37 -41 1 -102 21 -126 41 -11 9 -19 8 -32
-2 -16 -12 -25 -11 -64 6 -24 10 -46 19 -49 19 -2 0 -10 -13 -19 -30 -29 -56
-87 -63 -106 -13 -8 21 -6 30 11 48 11 12 20 24 20 28 0 4 -23 7 -51 7 -47 0
-50 -2 -47 -22 1 -13 -2 -24 -7 -25 -12 -2 -8 56 5 72 7 8 2 19 -15 35 -14 13
-25 29 -25 37 0 16 -5 17 59 -7 29 -10 92 -22 140 -25 121 -9 128 -11 139 -45
12 -33 23 -37 41 -16 20 24 63 25 138 0 41 -13 89 -24 108 -24 39 0 77 -15
121 -47 32 -24 58 -23 68 3 3 8 18 14 34 14 16 0 35 6 41 13 16 20 90 55 131
62 45 8 55 8 110 6 79 -3 142 10 147 30 3 11 10 19 15 19 5 0 16 16 24 35 12
30 13 53 4 143 -10 101 -9 137 5 207 11 54 -68 276 -133 376 -23 35 -51 84
-63 109 -23 50 -214 339 -254 384 -14 16 -25 34 -25 40 0 19 130 13 160 -6 36
-24 57 -9 32 23 -32 41 -32 55 -5 79 14 12 37 26 51 29 17 5 29 18 37 40 25
76 88 92 132 34 15 -21 35 -46 44 -55 10 -9 27 -35 40 -58 12 -22 26 -40 31
-40 5 0 13 -11 18 -25 10 -25 34 -33 45 -15 16 26 5 70 -34 130 -55 88 -101
176 -101 195 0 13 7 15 38 9 20 -4 53 -13 72 -21z m9175 -32 c3 -5 1 -12 -5
-16 -5 -3 -10 1 -10 9 0 18 6 21 15 7z m1433 -3 c17 -17 15 -35 -5 -42 -21 -8
-48 17 -40 38 8 19 28 21 45 4z m-1458 -18 c0 -5 -4 -10 -10 -10 -5 0 -10 5
-10 10 0 6 5 10 10 10 6 0 10 -4 10 -10z m-1845 -20 c-3 -5 -10 -10 -16 -10
-5 0 -9 5 -9 10 0 6 7 10 16 10 8 0 12 -4 9 -10z m-6365 -54 c15 -19 9 -56
-11 -69 -23 -14 -67 0 -74 24 -14 43 56 79 85 45z m8485 -97 c5 -36 3 -48 -10
-59 -15 -12 -19 -12 -31 5 -19 25 -18 60 2 91 21 31 30 22 39 -37z m1129 55
c20 -8 21 -38 1 -54 -17 -14 -43 -7 -51 15 -6 15 11 45 26 45 5 0 15 -3 24 -6z
m-1324 -30 c11 -12 11 -18 -1 -30 -13 -12 -18 -12 -34 0 -16 12 -17 16 -6 30
17 20 25 20 41 0z m-2382 -22 c4 -26 -21 -51 -50 -52 -23 0 -35 45 -17 66 19
23 63 14 67 -14z m-5509 -46 c17 -20 10 -67 -11 -80 -40 -25 -77 43 -43 78 20
20 39 20 54 2z m8899 -28 c15 -15 16 -64 2 -73 -6 -4 -30 -8 -54 -9 -24 -2
-58 -11 -76 -20 -35 -17 -120 -22 -120 -7 0 5 15 20 33 32 17 13 34 27 35 31
2 4 21 8 42 8 28 0 47 7 66 25 29 27 53 32 72 13z m-848 -32 c0 -28 -24 -51
-45 -42 -15 5 -21 47 -8 59 3 4 17 7 30 7 18 0 23 -6 23 -24z m-2812 -39 c26
-20 0 -67 -38 -67 -10 0 -26 7 -34 16 -45 45 19 91 72 51z m-4890 -23 c32 -22
26 -65 -10 -78 -22 -8 -32 -6 -48 9 -25 23 -25 40 0 65 24 24 29 24 58 4z
m7716 -117 c7 -19 6 -38 -4 -65 -14 -40 -87 -142 -101 -142 -5 0 -9 -6 -9 -13
0 -23 -59 -105 -80 -110 -12 -3 -20 -14 -20 -26 0 -12 -4 -21 -8 -21 -4 0 -16
-13 -25 -30 -10 -17 -27 -30 -38 -30 -13 0 -19 -7 -19 -24 0 -13 -9 -35 -21
-50 -11 -14 -18 -30 -14 -35 3 -5 1 -12 -5 -16 -5 -3 -10 -29 -10 -56 0 -56
-11 -66 -54 -49 -24 9 -27 14 -21 41 14 64 13 77 -11 87 -17 8 -31 6 -60 -9
-49 -24 -56 -24 -91 5 -22 18 -33 22 -46 15 -13 -8 -17 -6 -17 6 0 8 -5 15
-11 15 -5 0 -16 15 -24 33 -8 17 -26 45 -40 61 -17 20 -22 33 -15 40 5 5 10
22 10 37 0 15 3 29 8 31 4 2 16 20 27 42 18 35 47 56 78 56 19 0 46 -59 53
-115 4 -27 11 -58 16 -68 6 -12 6 -23 -1 -31 -15 -18 24 -39 60 -31 33 8 60
56 52 96 -7 39 14 79 47 90 26 10 30 16 30 48 0 31 6 43 36 67 74 61 94 86 94
119 0 14 5 25 10 25 6 0 10 -4 10 -10 0 -5 5 -10 10 -10 6 0 10 9 10 20 0 11
5 20 10 20 6 0 10 -4 10 -10 0 -19 39 -10 45 10 6 18 14 21 63 18 52 -3 57 -5
66 -31z m-10449 13 c3 -6 -1 -7 -9 -4 -18 7 -21 14 -7 14 6 0 13 -4 16 -10z
m3172 -60 c10 -20 9 -28 -4 -42 -33 -37 -113 -10 -113 37 0 48 93 52 117 5z
m8563 25 c13 -16 6 -35 -15 -35 -15 0 -24 19 -17 38 6 16 17 15 32 -3z
m-11755 -13 c19 -13 55 -70 55 -86 0 -9 5 -16 11 -16 6 0 9 -10 8 -22 -2 -13
3 -33 9 -45 7 -13 9 -23 5 -23 -5 0 -14 -9 -21 -20 -11 -18 -9 -24 15 -45 22
-19 24 -24 11 -25 -26 0 -22 -13 12 -39 17 -12 28 -26 25 -32 -4 -5 1 -12 9
-15 9 -3 16 -11 16 -16 0 -11 -41 -7 -72 7 -11 4 -18 3 -18 -4 0 -7 8 -15 18
-18 20 -8 35 -30 39 -60 3 -20 -1 -23 -26 -23 -17 0 -47 11 -67 25 -20 14 -42
25 -49 25 -6 0 -21 13 -33 29 -19 26 -20 32 -7 44 13 13 13 17 0 27 -16 13
-21 60 -6 60 5 0 9 17 9 38 0 52 11 132 25 166 6 17 10 40 9 53 -2 24 5 28 23
15z m3653 -138 c32 -22 27 -42 -12 -50 -34 -6 -109 12 -103 24 2 4 7 15 10 25
8 22 74 23 105 1z m-1849 -36 c11 -31 4 -47 -26 -54 -34 -9 -58 16 -49 50 9
35 62 38 75 4z m2036 -58 c15 -16 17 -26 9 -48 -8 -22 -16 -28 -49 -30 -29 -3
-43 1 -52 14 -16 22 -17 56 -1 72 19 19 73 14 93 -8z m3797 3 c24 -21 23 -45
-3 -69 -19 -17 -23 -17 -47 -3 -15 8 -28 25 -30 37 -7 47 43 69 80 35z m3868
-52 c0 -28 -28 -47 -48 -34 -24 15 -27 44 -7 59 22 17 55 1 55 -25z m-1016 13
c9 -22 -1 -34 -30 -34 -17 0 -24 6 -24 18 0 10 3 22 7 25 12 13 41 7 47 -9z
m491 -5 c4 -11 5 -23 2 -26 -9 -9 -32 11 -33 30 -2 24 23 21 31 -4z m-10602
-49 c7 0 25 -7 41 -15 15 -8 32 -12 37 -9 11 6 79 -58 79 -75 0 -14 -27 -15
-35 -1 -3 6 -15 10 -26 10 -10 0 -19 -4 -19 -10 0 -5 7 -10 15 -10 9 0 21 -5
28 -11 7 -5 27 -19 45 -30 29 -17 72 -72 72 -91 0 -11 -34 -10 -45 1 -12 11
-101 61 -109 61 -3 0 -6 -7 -6 -16 0 -13 -7 -15 -35 -10 -32 6 -36 4 -45 -20
-6 -15 -8 -36 -4 -47 4 -11 1 -23 -7 -28 -11 -6 -10 -11 3 -26 17 -20 14 -43
-7 -43 -23 0 -42 111 -23 137 6 7 3 21 -7 36 -11 18 -15 44 -14 93 1 38 -1 79
-5 91 -4 13 -2 32 5 44 l12 23 19 -27 c11 -15 25 -27 31 -27z m3515 1 c23 -14
10 -46 -18 -46 -20 0 -26 6 -28 28 -3 21 1 27 15 27 10 0 24 -4 31 -9z m7142
-11 c0 -5 -4 -10 -10 -10 -5 0 -10 5 -10 10 0 6 5 10 10 10 6 0 10 -4 10 -10z
m-1586 -39 c14 -16 15 -20 2 -30 -20 -16 -56 -4 -56 18 0 35 27 42 54 12z
m-6764 -41 c7 -13 5 -21 -5 -30 -29 -24 -70 15 -45 45 14 16 37 10 50 -15z
m8818 18 c7 -7 12 -18 12 -26 0 -11 -3 -12 -14 -3 -11 10 -15 8 -19 -6 -4 -17
-4 -17 -12 0 -8 19 -1 47 13 47 4 0 13 -5 20 -12z m-7448 -83 c20 -25 4 -48
-27 -40 -31 7 -44 22 -36 42 7 18 48 17 63 -2z m6664 -14 c-12 -12 -21 -14
-26 -8 -10 16 0 27 24 27 21 0 21 0 2 -19z m-10650 -13 c8 -13 8 -23 0 -36 -6
-10 -10 -37 -7 -60 3 -32 0 -44 -11 -48 -9 -3 -16 -12 -16 -20 0 -8 -4 -14
-10 -14 -13 0 -13 27 0 35 6 4 7 13 1 23 -4 9 -8 45 -9 80 0 58 2 63 21 60 11
-2 25 -11 31 -20z m9746 -34 c0 -8 -4 -12 -10 -9 -5 3 -10 10 -10 16 0 5 5 9
10 9 6 0 10 -7 10 -16z m-2160 -51 c11 -15 19 -34 18 -42 -7 -34 -89 -20 -103
17 -20 53 47 73 85 25z m1870 7 c0 -5 -7 -10 -16 -10 -8 0 -12 5 -9 10 3 6 10
10 16 10 5 0 9 -4 9 -10z m-7570 -37 c0 -8 -5 -13 -12 -11 -18 6 -21 25 -3 25
8 0 15 -7 15 -14z m84 -3 c16 -6 26 -17 26 -29 0 -26 -46 -76 -55 -61 -4 6
-13 9 -20 6 -18 -7 -39 38 -31 68 7 29 34 34 80 16z m1368 -19 c48 -38 80
-116 98 -241 12 -84 25 -133 45 -172 16 -31 25 -63 22 -72 -9 -23 -36 -31 -58
-18 -26 16 -63 15 -106 -3 -42 -18 -53 -30 -53 -61 0 -41 -79 -78 -99 -47 -13
21 -83 62 -97 56 -17 -6 -146 27 -156 40 -19 29 28 47 132 52 78 4 82 5 78 18
-3 7 -25 13 -54 15 -27 1 -58 3 -69 3 -21 2 -166 -47 -231 -78 -28 -13 -45
-30 -59 -61 -44 -95 -100 -53 -125 95 -15 92 -8 125 35 158 85 65 302 105 391
73 52 -19 80 -1 86 56 7 58 61 150 108 182 42 29 79 31 112 5z m-1454 -81 c7
-18 7 -30 1 -30 -5 0 -9 9 -9 19 0 10 -7 22 -16 25 -8 3 -12 10 -9 16 9 15 22
4 33 -30z m8202 15 c0 -16 35 -21 45 -5 3 5 12 7 19 4 8 -3 17 -1 21 5 10 17
50 13 68 -7 21 -23 41 -83 63 -192 9 -47 20 -89 25 -94 4 -5 22 8 39 28 18 20
38 36 46 36 28 0 52 -42 59 -103 l7 -61 -38 -33 c-22 -18 -45 -33 -51 -33 -7
0 -13 -3 -13 -7 0 -13 344 -7 348 5 1 5 -2 13 -7 17 -15 9 -14 52 1 57 8 3 5
13 -10 33 -26 33 -29 83 -5 92 23 9 55 -33 53 -71 -1 -17 -2 -37 -1 -43 1 -17
92 -103 108 -103 21 0 34 -38 31 -88 -3 -41 -6 -47 -24 -44 -11 1 -29 -7 -39
-18 -23 -26 -31 -25 -66 5 -28 23 -86 45 -121 45 -9 0 -35 -16 -58 -35 -42
-35 -80 -46 -80 -23 0 16 -40 58 -56 58 -25 0 -38 -29 -25 -57 6 -14 10 -27 9
-28 -2 -2 -39 -6 -83 -10 -43 -3 -83 -9 -88 -12 -5 -3 -8 0 -5 8 2 8 21 22 41
32 82 41 16 51 -91 13 -37 -13 -101 -44 -142 -70 -41 -25 -80 -46 -86 -46 -7
0 -32 -33 -57 -73 -25 -40 -60 -85 -77 -101 -28 -24 -32 -33 -27 -65 3 -20 8
-44 12 -53 9 -22 -47 -49 -111 -51 -32 -1 -51 -7 -56 -17 -6 -13 -7 -13 -7 0
-1 21 -56 48 -111 56 -61 9 -82 28 -69 62 8 21 5 33 -22 72 -17 25 -46 56 -65
68 -41 26 -48 74 -14 92 16 9 26 6 53 -14 32 -24 35 -25 100 -14 37 6 67 15
67 20 0 5 -5 6 -11 3 -6 -4 -9 -1 -8 6 1 8 -3 26 -11 41 -18 37 5 101 38 106
12 2 23 11 23 20 1 15 2 15 6 0 11 -42 20 -10 26 88 6 92 11 114 36 161 l30
54 -32 -6 c-42 -8 -93 -63 -107 -114 -6 -24 -21 -48 -35 -57 -33 -22 -159 -38
-185 -24 -11 6 -20 7 -20 1 0 -9 -179 -6 -212 5 -10 3 -21 16 -24 29 -3 13
-12 29 -19 35 -8 7 -11 23 -8 43 5 33 22 61 31 53 2 -3 18 13 33 34 16 22 36
40 45 40 13 0 56 19 114 52 8 4 26 13 40 19 74 31 139 64 167 85 17 13 39 24
48 24 9 0 34 14 55 31 50 41 108 44 146 8 24 -23 26 -28 19 -91 -4 -46 -2 -68
6 -73 6 -5 16 -1 21 9 5 9 15 16 22 16 7 0 21 9 30 19 10 10 37 24 62 30 24 6
44 17 44 24 0 6 14 21 30 32 16 11 30 26 30 33 0 8 9 16 20 19 11 3 20 9 20
14 0 5 5 9 10 9 6 0 10 -7 10 -15z m388 -6 c3 -17 -23 -33 -39 -23 -5 3 -9 14
-9 25 0 15 6 20 22 17 13 -2 24 -10 26 -19z m-1673 1 c3 -5 1 -10 -4 -10 -6 0
-11 5 -11 10 0 6 2 10 4 10 3 0 8 -4 11 -10z m389 -8 c15 -18 15 -20 -4 -37
-16 -14 -22 -15 -35 -5 -18 15 -19 32 -3 48 16 16 22 15 42 -6z m-8599 -32
c-3 -5 -16 -10 -28 -9 -20 1 -20 2 3 9 14 4 26 8 28 9 2 1 0 -3 -3 -9z m-973
-10 c43 -12 58 -34 58 -84 0 -67 -37 -107 -90 -97 -45 8 -112 108 -103 153 7
37 61 48 135 28z m713 -32 c11 -23 61 -43 71 -27 7 12 81 12 89 -1 11 -17 23
-11 32 16 13 40 63 41 85 3 14 -24 15 -29 2 -40 -8 -7 -13 -18 -10 -25 3 -7
-1 -18 -9 -24 -8 -6 -19 -27 -25 -45 -7 -21 -21 -37 -39 -44 -15 -7 -41 -24
-57 -39 -17 -15 -47 -36 -68 -47 -37 -20 -37 -20 -52 0 -22 29 -35 90 -40 179
-2 45 -7 89 -10 99 -8 25 19 21 31 -5z m3593 10 c17 -17 15 -44 -4 -62 -21
-21 -47 -20 -75 3 -22 18 -22 19 -6 45 19 28 63 36 85 14z m7185 -36 c-4 -18
-8 -20 -19 -11 -17 14 -18 36 -1 42 18 7 27 -6 20 -31z m-1253 8 c-8 -5 -19
-10 -25 -10 -5 0 -3 5 5 10 8 5 20 10 25 10 6 0 3 -5 -5 -10z m-9900 -24 c0
-11 -19 -15 -25 -6 -3 5 1 10 9 10 9 0 16 -2 16 -4z m9909 1 c-2 -1 -11 -8
-20 -15 -14 -10 -18 -10 -23 3 -4 11 1 15 21 15 14 0 24 -1 22 -3z m-2324 -69
c31 -37 32 -63 1 -83 -18 -12 -29 -13 -52 -5 -36 14 -44 26 -44 72 0 63 49 71
95 16z m925 7 c13 -16 6 -35 -14 -35 -17 0 -48 35 -39 43 11 12 40 8 53 -8z
m143 -193 c23 -20 22 -39 -3 -52 -24 -13 -60 7 -90 51 l-20 28 22 3 c26 4 65
-9 91 -30z m-4605 -10 c27 -34 4 -65 -60 -83 -78 -21 -119 28 -59 70 57 41 93
45 119 13z m-1674 -91 c26 -29 17 -65 -17 -69 -36 -4 -57 13 -57 49 0 21 6 29
23 32 12 2 25 5 28 6 3 0 14 -8 23 -18z m561 -141 c0 -75 -8 -90 -53 -90 -30
0 -72 43 -72 72 1 36 24 59 77 73 26 7 48 14 48 14 0 1 0 -31 0 -69z m335 38
c3 -1 17 2 32 6 32 9 162 -25 189 -50 22 -20 25 -49 7 -61 -7 -4 -35 -10 -61
-13 -48 -5 -49 -6 -66 -55 -19 -55 -66 -135 -80 -135 -16 0 -22 74 -10 125 24
103 20 131 -12 96 -25 -27 -53 -27 -79 1 -31 33 -26 66 13 83 17 8 39 12 47 9
8 -3 17 -6 20 -6z m5530 -18 c10 -16 24 -108 21 -135 -8 -56 -99 -58 -238 -4
-44 17 -20 90 34 104 15 3 38 18 51 32 21 22 29 25 74 21 27 -3 54 -11 58 -18z
m-6312 -18 c3 -16 -2 -22 -17 -22 -24 0 -35 15 -27 36 9 23 40 13 44 -14z
m-2742 -22 c77 -36 87 -44 103 -83 27 -63 43 -136 36 -166 -12 -54 -99 -79
-146 -42 -41 31 -68 35 -92 13 -25 -23 -59 -29 -100 -17 -26 7 -27 9 -12 24
24 28 18 57 -21 95 -28 27 -35 41 -30 58 9 35 17 43 62 66 22 11 54 37 69 56
16 20 33 36 38 36 5 0 47 -18 93 -40z m4264 -48 c59 -48 -42 -124 -102 -78
-24 18 -23 45 4 73 26 28 67 30 98 5z m6930 -16 c0 -8 -5 -18 -11 -22 -14 -8
-33 11 -25 25 10 16 36 13 36 -3z m-194 -38 c-10 -6 -20 -7 -24 -3 -9 8 20 25
31 18 5 -3 2 -10 -7 -15z m994 -79 c0 -35 -67 -61 -89 -35 -12 14 -8 21 24 51
35 32 39 33 51 17 7 -9 14 -24 14 -33z m-2422 10 c3 -24 -3 -29 -41 -44 -58
-22 -101 -17 -105 12 -5 32 50 64 103 61 35 -3 40 -6 43 -29z m-242 -16 c22
-29 16 -51 -26 -104 -22 -28 -40 -55 -40 -60 0 -5 -10 -9 -22 -9 -13 0 -31 -6
-40 -14 -16 -11 -16 -15 -2 -34 13 -19 13 -26 2 -49 -14 -29 -61 -46 -57 -21
1 7 -1 21 -6 31 -4 9 -5 27 -2 38 5 20 3 21 -39 15 -28 -3 -73 0 -114 10 -58
13 -67 18 -63 34 4 16 57 50 77 50 7 0 169 74 198 90 10 6 25 10 33 10 8 0 15
4 15 9 0 9 22 16 59 20 8 0 20 -7 27 -16z m1148 -127 c6 -72 1 -126 -13 -126
-10 0 -31 76 -31 114 0 40 15 86 28 86 5 0 12 -33 16 -74z m-2599 10 c28 -43
-18 -91 -63 -67 -28 15 -35 40 -17 67 21 32 60 31 80 0z m-3661 -92 c3 -9 6
-26 6 -39 0 -14 9 -29 19 -35 54 -29 61 -70 12 -70 -43 0 -121 127 -94 153 12
13 51 7 57 -9z m7119 -76 c26 -34 16 -58 -22 -58 -40 0 -68 38 -51 70 15 28
47 23 73 -12z m-945 -15 c5 -17 -26 -29 -40 -15 -6 6 -7 15 -3 22 9 14 37 9
43 -7z m-418 -32 c14 -27 12 -73 -5 -95 -10 -13 -28 -19 -56 -20 -46 -1 -59
13 -34 37 8 9 15 22 15 30 0 20 39 67 55 67 8 0 19 -9 25 -19z m1558 -14 c3
-14 -1 -18 -20 -15 -12 2 -24 11 -26 21 -3 14 1 18 20 15 12 -2 24 -11 26 -21z
m-5883 -21 c30 -23 34 -24 54 -9 19 13 27 13 47 3 19 -11 29 -11 47 -1 18 10
34 10 62 2 25 -7 44 -7 56 0 14 7 28 5 50 -6 28 -15 32 -15 48 -1 22 20 45 21
38 2 -4 -9 -1 -13 7 -10 6 2 28 -2 47 -10 30 -13 37 -12 62 2 27 16 29 16 43
-2 11 -16 17 -17 26 -8 21 21 46 13 57 -19 11 -31 12 -31 33 -15 39 28 50 30
60 11 8 -13 12 -14 18 -5 10 17 30 4 30 -19 0 -17 7 -18 56 -15 49 4 56 2 61
-16 5 -20 23 -28 23 -10 0 6 5 10 10 10 6 0 10 -9 10 -21 0 -16 4 -19 21 -14
12 4 27 1 37 -8 9 -9 34 -19 56 -23 25 -4 40 -13 43 -25 4 -12 14 -19 29 -19
13 0 32 -9 42 -21 9 -11 43 -34 75 -51 36 -20 59 -39 63 -53 4 -16 11 -21 25
-18 12 3 21 -1 25 -12 4 -10 27 -36 52 -59 25 -22 53 -54 63 -70 17 -28 20
-29 110 -33 152 -5 564 -85 615 -118 56 -36 79 -141 72 -323 -8 -197 -60 -320
-153 -367 -79 -38 -314 -12 -455 51 -97 43 -113 70 -150 252 -26 127 -45 155
-108 165 -59 10 -122 -15 -122 -48 0 -6 -17 -47 -39 -91 -74 -154 -155 -224
-273 -239 -62 -7 -366 9 -488 26 -138 19 -190 62 -238 194 -30 82 -40 167 -36
306 6 192 47 339 113 410 39 40 41 50 5 24 -12 -8 -24 -11 -28 -8 -3 3 -6 1
-6 -6 0 -7 -6 -11 -14 -8 -7 3 -19 0 -25 -6 -6 -6 -11 -7 -11 -2 0 4 -11 -5
-25 -21 -14 -16 -25 -24 -25 -19 0 19 -71 -117 -85 -163 -4 -13 -9 -21 -12
-19 -6 7 20 93 45 148 30 64 89 129 117 129 38 0 38 16 0 41 -19 13 -39 36
-44 52 -10 26 -9 27 11 16 12 -7 33 -22 47 -35 14 -13 30 -24 34 -24 5 0 6 -8
2 -19 -5 -16 0 -18 35 -17 46 1 51 11 13 29 -15 6 -50 36 -78 65 -47 47 -76
68 -60 42 9 -14 -18 -13 -32 1 -9 9 -10 7 -6 -10 6 -25 -4 -27 -29 -4 -29 26
-31 9 -3 -25 16 -19 23 -36 19 -47 -6 -16 -8 -16 -16 -1 -5 9 -14 16 -19 16
-6 0 -24 9 -41 21 -16 12 -31 19 -33 17 -7 -7 60 -87 74 -88 8 0 20 -8 28 -17
10 -13 16 -15 19 -5 6 13 24 7 24 -9 0 -6 -4 -7 -10 -4 -5 3 -10 -1 -10 -10 0
-14 -3 -14 -27 -1 -16 8 -41 26 -56 40 -15 14 -34 26 -42 26 -7 0 -20 6 -27
13 -8 6 -30 26 -48 42 -30 26 -32 26 -15 5 10 -14 42 -46 70 -72 49 -47 41
-52 -23 -15 -39 23 -50 17 -33 -19 6 -15 10 -29 7 -31 -10 -10 -24 8 -30 39
-7 31 -8 32 -21 14 -8 -11 -15 -15 -15 -10 0 10 -49 38 -55 32 -7 -7 -7 -35 0
-51 10 -24 -1 -33 -20 -17 -10 8 -14 22 -11 35 4 17 -1 24 -32 36 -58 22 -59
22 -28 -4 16 -14 25 -30 22 -36 -4 -6 5 -23 19 -38 14 -16 31 -36 36 -45 16
-29 -81 27 -134 78 -47 45 -77 52 -57 13 6 -10 14 -18 18 -16 9 2 82 -66 82
-77 0 -3 -13 0 -29 9 -36 18 -51 3 -25 -26 9 -10 14 -22 10 -27 -4 -4 -13 1
-20 11 -7 9 -20 17 -28 17 -8 0 -20 6 -27 13 -11 10 -14 10 -18 0 -7 -20 -23
-15 -23 7 0 13 -9 22 -27 26 -16 4 -33 11 -39 15 -8 7 -10 1 -6 -17 3 -17 16
-31 38 -42 19 -8 34 -22 34 -30 0 -19 -39 -6 -72 26 -16 14 -28 22 -28 19 0
-4 -8 -3 -19 2 -26 14 -35 1 -11 -16 42 -30 5 -37 -85 -17 -11 3 -2 -5 20 -16
22 -12 47 -23 54 -24 8 -2 17 -8 19 -15 3 -9 -7 -12 -34 -11 -73 5 -99 1 -86
-12 22 -22 14 -41 -13 -34 -16 4 -25 2 -25 -5 0 -8 -4 -8 -15 1 -17 14 -42 3
-27 -12 11 -11 10 -13 -36 -52 -18 -15 -24 -16 -37 -6 -12 10 -18 10 -30 0
-14 -12 -14 -15 1 -31 22 -25 2 -54 -26 -39 -23 12 -43 13 -36 1 3 -5 -1 -12
-10 -15 -9 -3 -14 -13 -10 -21 6 -16 -9 -28 -36 -30 -25 -2 -30 -10 -30 -40 0
-19 -8 -29 -25 -36 -13 -5 -22 -13 -18 -18 3 -6 -4 -15 -15 -21 -11 -6 -18
-15 -15 -20 3 -5 -4 -15 -16 -24 -12 -8 -18 -19 -15 -25 12 -18 -24 -61 -51
-61 -13 0 -33 -5 -43 -10 -28 -15 -33 4 -9 34 18 22 19 29 8 42 -11 14 -10 18
6 30 16 12 17 17 5 39 -17 32 1 57 39 53 19 -2 25 1 22 12 -10 40 -6 55 19 58
26 4 53 22 32 22 -7 0 -12 5 -12 11 0 7 10 9 25 5 14 -4 25 -4 25 -1 0 3 -11
10 -25 15 -28 11 -34 47 -10 56 8 3 29 1 46 -5 31 -11 31 -10 24 17 -3 15 -9
37 -11 48 -5 18 0 23 30 28 21 4 36 13 38 24 2 9 10 17 18 18 52 3 53 4 41 18
-13 16 -1 29 21 21 7 -2 24 4 38 15 22 17 23 22 13 39 -19 31 -16 37 20 37 17
0 40 3 51 7 15 6 16 10 6 22 -17 21 -6 29 20 15 26 -14 50 -6 50 16 0 25 59
74 89 74 15 0 39 12 54 26 23 22 34 25 66 19 33 -5 39 -3 49 19 10 24 15 25
57 19 35 -4 45 -3 45 8 0 8 4 20 9 28 8 12 12 13 25 2 24 -20 80 -25 73 -7
-10 25 37 46 87 42 47 -5 52 -1 37 24 -9 14 -6 30 6 30 3 0 21 -11 38 -24z
m5310 4 c-3 -5 -11 -10 -16 -10 -6 0 -7 5 -4 10 3 6 11 10 16 10 6 0 7 -4 4
-10z m-700 -25 c0 -15 -8 -21 -32 -23 -36 -4 -38 -1 -22 29 14 27 54 22 54 -6z
m-2407 -49 c16 -32 9 -46 -25 -46 -51 0 -84 57 -46 78 24 14 56 0 71 -32z
m3692 -51 c17 -20 8 -50 -14 -50 -23 0 -41 27 -33 49 8 20 31 21 47 1z m232
-31 c2 -9 1 -39 -1 -66 -2 -39 -6 -48 -20 -46 -18 4 -26 45 -16 95 6 34 31 46
37 17z m-978 -20 c30 -11 38 -41 22 -79 -8 -19 -20 -35 -25 -35 -6 0 -11 -7
-11 -15 0 -8 -4 -15 -10 -15 -5 0 -10 7 -10 15 0 8 -4 15 -10 15 -5 0 -14 17
-21 39 -18 62 11 96 65 75z m-6509 -59 c30 -29 31 -35 4 -69 -42 -53 -135 -20
-113 42 9 26 45 52 72 52 7 0 24 -11 37 -25z m1600 -23 c-6 -7 -35 18 -35 31
0 5 9 2 20 -8 11 -10 18 -20 15 -23z m-6288 -54 c16 -13 17 -80 1 -96 -32 -32
-108 8 -108 58 0 52 64 74 107 38z m11219 -35 c43 -28 47 -56 19 -136 -13 -39
-33 -79 -44 -90 -17 -17 -21 -18 -47 -5 -17 8 -27 21 -25 29 19 74 27 124 30
202 1 22 34 22 67 0z m-2932 -33 c30 -11 35 -44 9 -72 -39 -43 -126 1 -95 49
6 9 29 22 59 32 1 1 13 -3 27 -9z m-7809 -24 c9 -14 15 -37 13 -53 -2 -24 -8
-28 -36 -31 -41 -4 -62 12 -62 48 0 46 10 60 41 60 19 0 34 -8 44 -24z m5143
-29 c7 -5 11 -11 9 -13 -7 -7 -67 18 -67 28 0 11 38 1 58 -15z m-4465 -79 c36
-42 12 -98 -43 -98 -65 0 -97 74 -49 113 27 22 66 16 92 -15z m3527 -28 c27
-27 25 -46 -5 -66 -54 -35 -123 12 -90 62 19 30 67 32 95 4z m6404 -10 c20 -7
26 -17 26 -39 0 -17 6 -34 13 -38 23 -15 37 -53 37 -102 0 -28 -4 -52 -9 -56
-5 -3 -25 3 -43 13 -24 13 -43 39 -70 93 -39 76 -41 102 -10 127 19 15 23 15
56 2z m-9444 -56 c17 -43 12 -72 -14 -89 -54 -36 -114 48 -69 97 25 28 71 24
83 -8z m441 -95 c25 -62 -34 -107 -83 -62 -25 22 -23 49 6 78 30 30 60 24 77
-16z m4009 33 c0 -20 -609 -202 -855 -256 -356 -79 -467 -135 -375 -190 25
-14 29 -22 24 -39 -4 -12 -11 -25 -17 -28 -5 -4 -7 -12 -3 -18 4 -6 -4 -13
-19 -17 -21 -5 -24 -10 -19 -28 4 -11 11 -23 15 -24 16 -7 -2 -22 -25 -22 -13
0 -39 -7 -59 -15 -19 -8 -37 -12 -40 -9 -3 4 5 24 19 45 25 40 31 69 14 69
-15 0 -12 36 4 49 8 7 12 21 9 32 -4 15 2 22 26 32 24 9 31 17 31 37 0 14 -5
31 -11 37 -17 17 -2 32 29 31 38 -1 728 174 1087 277 175 50 165 47 165 37z
m-3548 -69 c18 -16 24 -66 12 -97 -11 -28 -58 -20 -77 13 -21 37 -22 59 0 83
20 22 41 23 65 1z m7642 11 c23 -9 20 -41 -5 -49 -31 -10 -69 2 -63 20 4 8 10
13 14 10 4 -3 10 2 14 10 6 16 16 18 40 9z m-179 -94 c0 -8 -11 -17 -24 -18
-19 -3 -21 -6 -10 -13 10 -6 7 -9 -13 -9 -29 0 -39 25 -17 47 16 16 64 11 64
-7z m-5381 -73 c12 -9 17 -23 14 -46 -4 -43 -27 -59 -65 -45 -36 12 -43 54
-14 83 24 24 40 26 65 8z m-1693 -53 c19 -18 36 -24 70 -24 49 0 99 -18 99
-36 0 -8 -11 -8 -37 2 -45 16 -107 18 -98 4 3 -5 14 -10 25 -10 10 0 21 -7 24
-16 4 -10 14 -14 26 -11 10 3 27 -1 37 -9 10 -7 26 -14 36 -14 9 0 17 -5 17
-11 0 -6 -9 -8 -20 -4 -34 11 -23 -10 39 -74 61 -64 111 -138 111 -165 0 -12
10 -16 37 -16 l36 0 -19 23 c-29 32 -56 78 -51 84 3 3 17 -14 32 -36 49 -79
54 -81 165 -81 l99 0 -49 66 c-46 61 -58 84 -45 84 3 0 30 -34 60 -75 31 -42
63 -75 73 -75 59 -1 170 -23 215 -42 84 -35 130 -72 192 -152 69 -90 91 -106
148 -106 51 0 82 20 111 71 l19 34 -33 -30 c-41 -37 -31 -18 29 57 25 32 62
65 81 74 62 30 167 39 297 26 65 -7 195 -17 288 -22 276 -16 339 -35 401 -122
50 -69 70 -117 95 -223 20 -90 21 -107 11 -178 -14 -96 -65 -209 -119 -261
-87 -84 -183 -103 -445 -87 -98 6 -188 15 -198 21 -38 20 -43 9 -7 -16 21 -14
74 -68 117 -121 112 -135 124 -174 123 -398 0 -157 -5 -216 -20 -255 -4 -8 -5
-19 -4 -23 1 -5 -3 -6 -9 -2 -5 3 -10 4 -10 1 0 -2 -3 -11 -6 -20 -4 -11 -1
-16 10 -16 9 0 16 -4 16 -9 0 -5 -8 -8 -17 -7 -10 0 -19 -8 -21 -19 -2 -11
-13 -28 -23 -38 -10 -10 -19 -21 -19 -26 0 -11 -122 -97 -178 -125 -54 -27
-78 -37 -144 -61 -50 -17 -63 -35 -27 -35 11 0 29 -5 39 -10 10 -6 74 -12 142
-15 136 -6 166 -9 188 -17 8 -4 24 -8 35 -11 11 -3 45 -15 75 -27 30 -12 64
-24 76 -27 14 -3 24 -17 30 -41 7 -30 16 -39 49 -52 23 -8 54 -28 70 -43 18
-16 23 -25 13 -21 -13 4 -18 1 -18 -10 0 -9 12 -18 28 -22 36 -9 90 -63 74
-73 -14 -8 9 -32 43 -46 13 -5 15 -9 8 -12 -17 -6 -17 -23 0 -23 13 0 77 -66
77 -79 0 -4 20 -22 45 -41 25 -19 45 -39 45 -45 0 -13 45 -57 74 -72 14 -8 27
-6 50 8 37 21 315 115 369 124 33 5 37 9 31 28 -3 12 -13 29 -21 37 -11 11
-14 11 -8 1 5 -9 3 -12 -6 -9 -8 2 -15 19 -17 36 -3 31 -26 45 -34 20 -3 -7
-16 7 -29 30 -19 32 -28 39 -37 30 -18 -18 -25 -3 -11 21 16 24 5 39 -16 21
-12 -10 -15 -9 -15 6 0 11 5 26 10 34 7 12 12 12 22 2 20 -20 33 -14 14 7 -13
14 -16 28 -11 55 5 23 11 33 19 29 6 -3 8 -2 3 2 -4 5 0 17 10 27 9 10 14 20
11 23 -10 10 -35 -6 -46 -28 -11 -22 -11 -22 -11 3 -1 14 -4 36 -8 50 -6 21
-4 23 9 13 24 -20 28 -4 9 40 -10 23 -16 47 -14 54 2 6 -5 30 -16 52 -26 49
-26 59 -3 84 16 19 16 20 -6 14 -20 -5 -22 -2 -20 25 1 16 6 32 10 34 4 3 8
12 8 21 0 12 -3 13 -14 4 -12 -10 -14 -6 -10 26 2 21 5 65 8 98 2 33 14 87 26
120 11 33 23 87 25 120 3 38 13 78 29 110 14 28 26 55 26 60 0 21 141 175 160
175 6 0 23 6 38 14 35 18 113 28 130 17 8 -4 16 -29 18 -55 2 -25 13 -62 24
-81 11 -20 20 -43 20 -53 0 -10 11 -34 25 -54 14 -20 25 -46 25 -57 0 -11 4
-22 9 -25 5 -3 21 -30 35 -60 23 -47 35 -59 83 -82 95 -47 208 -34 277 32 30
28 105 179 146 291 12 35 28 68 36 74 13 10 104 7 154 -6 14 -3 64 -9 111 -12
116 -8 129 0 130 75 l1 57 18 -70 c10 -41 66 -166 132 -300 63 -126 129 -266
146 -310 88 -229 108 -274 161 -378 32 -61 102 -208 156 -324 l97 -213 72 -21
c39 -11 78 -22 86 -24 50 -12 306 -91 360 -112 82 -31 223 -115 273 -162 l37
-35 1 149 c1 83 4 197 8 254 l6 105 31 3 c22 3 33 -1 38 -12 3 -8 -2 -118 -10
-243 -18 -259 -16 -308 14 -374 12 -26 29 -71 37 -100 l15 -53 -6 55 c-12 95
-10 347 4 538 7 101 11 187 8 190 -3 3 -50 9 -103 15 -117 11 -133 15 -115 26
18 11 -70 21 -184 21 -101 0 -157 -8 -148 -21 3 -5 -4 -9 -16 -9 -12 0 -34 -7
-50 -15 -31 -16 -39 -27 -17 -22 7 1 13 -12 15 -33 l4 -34 -25 24 c-38 40 -40
58 -12 116 57 116 113 136 365 133 l165 -3 3 30 c1 16 9 83 17 149 9 66 26
221 39 344 25 229 30 246 68 237 10 -2 21 0 24 5 3 5 15 9 27 9 17 0 19 -2 8
-9 -16 -10 -9 -83 9 -89 17 -6 33 -44 45 -112 7 -36 20 -94 28 -130 56 -233
91 -511 51 -405 -23 60 -31 90 -59 210 -38 165 -102 325 -128 325 -3 0 -8 -35
-12 -77 -7 -92 -54 -451 -61 -474 -4 -14 7 -18 63 -23 78 -8 205 -24 246 -32
34 -7 87 -50 87 -72 0 -9 9 -25 20 -37 12 -12 22 -35 23 -51 2 -28 0 -29 -43
-32 l-45 -3 -19 -152 c-10 -84 -26 -215 -36 -292 -40 -299 -71 -536 -89 -685
-11 -85 -31 -243 -45 -350 -14 -107 -30 -244 -36 -303 l-11 -109 72 -75 c66
-69 71 -78 67 -113 l-3 -37 37 19 c129 68 257 -125 163 -247 -14 -19 -35 -40
-46 -46 -29 -15 -87 -2 -113 25 -11 12 -45 48 -74 79 l-53 56 16 30 c16 32 7
42 -15 16 -19 -23 -34 -18 -83 28 -29 26 -56 65 -73 102 -33 75 -44 91 -55 73
-5 -7 -16 -13 -26 -13 -11 0 -17 -7 -17 -17 1 -10 -2 -15 -7 -12 -5 3 -9 1 -9
-4 0 -5 -9 -12 -21 -15 -13 -4 -18 -10 -14 -18 6 -8 1 -10 -18 -7 -15 3 -24 1
-21 -3 3 -5 -7 -9 -21 -9 -20 0 -26 4 -22 15 4 8 2 17 -3 20 -4 3 -25 56 -45
119 l-37 114 21 21 c26 26 26 32 0 65 -19 24 -20 31 -9 103 14 88 30 127 61
144 18 9 26 6 51 -18 l31 -28 -27 40 c-38 58 -40 64 -26 81 11 12 15 12 22 2
7 -9 8 -7 4 7 -3 12 3 31 14 45 l20 25 0 -105 c0 -84 4 -110 18 -132 18 -27
18 -25 14 95 -3 71 0 139 7 162 11 42 69 150 77 143 2 -3 -3 -60 -11 -129 -29
-251 -29 -406 1 -377 7 8 19 144 34 383 5 94 18 196 30 245 11 47 20 105 20
129 0 75 -21 170 -46 207 -13 19 -33 52 -43 73 -52 101 -128 157 -282 207 -63
21 -121 43 -129 49 -8 7 -32 18 -52 26 -21 7 -34 17 -30 21 9 9 70 -8 87 -23
5 -5 16 -9 24 -9 8 0 33 -8 55 -19 23 -10 57 -24 76 -30 l35 -11 -24 20 c-13
11 -30 20 -37 20 -8 0 -25 7 -37 15 -13 8 -52 24 -88 36 -35 11 -68 25 -74 29
-5 5 -28 11 -50 15 -22 4 -84 18 -139 32 -54 13 -128 27 -165 29 -36 3 -79 9
-96 14 -16 5 -61 14 -100 20 -38 5 -81 12 -95 14 -225 37 -263 40 -490 39
-235 -2 -316 -11 -435 -46 -269 -81 -300 -88 -395 -88 -52 0 -117 5 -145 10
-159 32 -200 38 -264 40 -38 1 -132 -5 -207 -14 -129 -16 -152 -16 -219 1
l-27 7 17 -34 c10 -19 30 -48 47 -65 16 -17 28 -35 26 -40 -2 -5 18 -29 45
-54 26 -24 47 -52 47 -62 0 -11 14 -23 34 -32 40 -17 52 -32 30 -40 -12 -5 -7
-16 27 -56 23 -27 50 -52 60 -55 12 -4 18 -14 16 -28 -1 -14 6 -25 24 -34 15
-7 32 -20 39 -28 10 -12 10 -15 -4 -15 -27 0 -18 -15 19 -33 25 -12 37 -25 41
-47 9 -42 42 -50 69 -16 25 31 36 32 60 6 23 -25 38 -26 30 -1 -8 27 18 45 46
31 22 -12 22 -18 3 -102 -5 -21 0 -33 19 -52 15 -14 35 -26 46 -26 17 0 18 3
8 29 -14 37 3 61 44 61 43 0 69 -32 69 -83 0 -46 22 -87 47 -87 8 0 24 11 35
25 13 17 29 25 50 25 30 0 68 -24 68 -42 0 -22 56 -128 67 -128 7 0 24 18 38
40 40 64 95 77 111 28 6 -21 7 -21 26 5 22 31 53 35 80 10 24 -21 23 -57 -3
-92 -29 -40 -18 -54 37 -45 52 7 65 -10 45 -60 -32 -77 -21 -100 23 -50 16 20
28 25 44 20 27 -9 34 -33 23 -74 -12 -41 3 -51 33 -23 19 18 24 19 42 7 11 -8
30 -37 43 -65 22 -47 27 -51 68 -57 33 -5 49 -14 71 -41 15 -19 42 -48 60 -66
17 -17 32 -37 32 -44 0 -21 -69 -46 -125 -44 -27 0 -108 -6 -180 -14 -619 -71
-751 -74 -1335 -30 -107 8 -204 15 -215 15 -12 0 -16 3 -9 8 13 8 6 82 -7 82
-5 0 -9 7 -9 15 0 8 -6 12 -13 9 -8 -3 -18 6 -25 21 -7 14 -16 24 -21 21 -5
-3 -12 1 -15 10 -5 13 -2 15 14 11 17 -4 28 2 77 43 7 5 16 10 20 10 12 0 33
74 24 83 -9 9 -41 -1 -41 -14 0 -5 -8 -9 -17 -9 -10 0 -27 -7 -37 -15 -24 -18
-53 -19 -59 -2 -3 9 -7 9 -20 -2 -21 -17 -21 -40 -2 -65 22 -29 18 -43 -14
-49 -17 -4 -30 -14 -33 -25 -4 -15 -12 -19 -32 -15 -14 3 -26 12 -26 19 0 22
-18 16 -26 -8 l-6 -21 -19 24 c-10 13 -19 18 -19 12 0 -19 -12 -16 -44 12 -22
19 -33 22 -47 15 -25 -14 -39 -12 -39 5 0 8 -3 15 -7 15 -15 0 -64 -37 -79
-59 -9 -12 -19 -19 -24 -16 -12 7 -21 -10 -14 -28 7 -19 51 -29 144 -32 41 -1
90 -5 107 -9 29 -7 34 -5 43 18 5 14 14 26 19 26 5 0 16 3 25 6 11 4 16 0 16
-14 0 -15 12 -25 48 -38 26 -10 52 -21 57 -25 6 -4 24 -9 40 -12 53 -9 -217 4
-305 14 -94 11 -108 13 -130 22 -13 5 -128 20 -167 22 -6 0 -14 3 -18 6 -9 10
34 78 57 90 15 8 19 19 16 46 -3 41 16 56 36 28 18 -25 50 -15 54 16 2 19 -4
31 -23 43 -49 32 -118 -7 -129 -71 -7 -40 -36 -83 -56 -83 -8 0 -10 9 -6 25 7
27 -10 35 -31 14 -9 -9 -9 -17 0 -31 10 -17 8 -23 -19 -46 -43 -38 -89 -121
-75 -135 20 -20 12 -46 -16 -53 -32 -9 -44 -19 -60 -56 -8 -17 -25 -30 -50
-39 -20 -6 -65 -33 -98 -59 -33 -25 -106 -82 -163 -125 -101 -77 -250 -220
-312 -300 -17 -22 -37 -44 -43 -50 -7 -5 -23 -26 -37 -45 -13 -19 -34 -46 -46
-60 -42 -45 -108 -133 -161 -215 -28 -44 -60 -91 -70 -105 -10 -13 -32 -63
-48 -110 -29 -81 -32 -85 -60 -85 -37 0 -42 -21 -18 -72 14 -28 18 -50 13 -86
-5 -38 -2 -51 11 -63 34 -31 45 -184 14 -184 -20 0 -31 20 -45 77 -9 40 -17
53 -30 53 -10 0 -20 9 -23 20 -6 25 -27 27 -27 3 0 -10 9 -54 19 -99 18 -73
38 -216 25 -170 -4 11 -12 26 -20 34 -8 7 -14 24 -14 37 0 13 -4 27 -10 30 -5
3 -10 14 -10 24 0 23 -40 153 -52 168 -5 7 -7 25 -3 42 11 49 -35 99 -48 52
-3 -11 1 -31 9 -46 12 -23 11 -30 -5 -56 -21 -34 -25 -31 -35 21 -12 60 -27
88 -44 86 -9 -2 -18 -11 -19 -22 -15 -113 -23 -119 -38 -29 -4 22 -10 45 -14
50 -12 17 -31 91 -31 123 0 17 6 37 13 44 33 36 -11 78 -50 47 -14 -12 -16
-12 -11 1 2 8 13 16 24 18 10 2 33 10 51 18 38 17 60 18 67 2 3 -7 4 -4 3 6
-1 14 10 24 48 39 69 28 180 102 205 137 11 16 25 52 31 82 15 76 13 978 -3
1015 -6 15 -10 66 -9 113 3 106 -10 164 -56 260 -19 41 -45 95 -56 118 -13 26
-21 65 -22 95 l0 52 -54 27 c-69 35 -68 34 -34 51 67 35 192 60 275 55 75 -5
89 -9 203 -67 143 -74 189 -83 258 -53 34 15 55 34 76 67 57 90 49 193 -29
351 -69 141 -176 240 -370 342 -63 34 -142 68 -175 77 -157 41 -428 72 -461
53 -5 -3 -20 -1 -34 4 -26 10 -175 13 -190 3 -5 -3 -11 -1 -15 5 -4 6 -13 7
-23 1 -9 -5 -75 -11 -147 -15 -71 -3 -155 -11 -185 -16 -208 -39 -263 -52
-283 -65 -10 -7 -27 -11 -38 -8 -10 3 -19 1 -19 -5 0 -6 -9 -8 -20 -5 -14 4
-20 0 -20 -11 0 -15 -21 -21 -62 -17 -10 1 -18 -4 -18 -13 0 -11 -10 -16 -31
-16 -27 0 -30 3 -24 23 15 49 31 77 42 73 7 -3 26 8 42 25 34 33 23 47 -23 29
-39 -14 -56 -13 -50 5 4 8 16 15 28 16 11 0 15 3 9 6 -18 7 -16 23 2 23 22 0
18 21 -5 27 -36 9 -4 32 36 26 22 -4 34 -2 34 6 0 6 15 11 34 11 19 0 38 5 42
11 4 7 -10 9 -49 4 -57 -7 -97 -1 -97 16 0 5 8 9 17 9 28 0 92 50 86 66 -7 18
21 51 59 70 37 19 35 34 -4 34 -30 0 -31 1 -16 17 9 9 33 17 53 17 39 2 52 19
18 24 -13 2 -23 7 -23 12 0 12 26 19 50 13 19 -5 21 -3 15 16 -5 18 -2 21 23
21 17 0 32 5 34 10 2 6 21 13 43 17 22 3 61 16 88 29 39 19 53 21 83 12 20 -5
38 -7 42 -4 3 3 -2 6 -11 6 -9 0 -17 5 -17 10 0 6 14 10 30 10 17 0 30 4 30 9
0 5 28 12 63 15 34 3 88 8 119 11 33 3 59 1 63 -5 9 -15 25 -12 25 5 0 8 5 15
10 15 6 0 10 -5 10 -11 0 -6 11 -8 28 -4 16 3 43 -1 63 -9 19 -8 41 -11 48 -7
7 4 46 9 87 9 58 2 76 -2 80 -13 4 -8 15 -15 26 -15 10 0 17 4 13 9 -8 15 15
25 28 12 6 -6 37 -11 69 -11 38 0 60 -4 63 -13 3 -7 20 -11 43 -10 20 1 89 4
153 6 101 3 120 6 144 25 15 12 33 22 39 22 7 0 22 14 34 30 13 17 27 30 33
30 5 0 31 21 58 48 26 26 89 83 141 127 115 100 401 395 394 407 -3 5 -14 6
-24 3 -30 -10 -32 12 -3 33 16 10 62 35 103 55 41 20 80 45 87 56 12 19 9 18
-40 -4 -77 -36 -95 -33 -50 10 20 19 41 35 45 35 26 0 -1 25 -62 55 -41 21
-68 40 -64 46 8 14 41 5 114 -30 43 -21 60 -25 60 -16 0 8 -10 21 -22 29 l-22
16 22 0 c13 0 48 -11 78 -25 68 -31 84 -32 84 -1 0 19 -11 28 -59 50 -32 14
-63 26 -68 26 -4 0 -35 14 -68 31 -125 66 -272 142 -320 166 -27 14 -58 32
-67 40 -14 13 -22 13 -55 2 -21 -7 -42 -12 -48 -10 -5 1 -7 0 -3 -4 21 -21
-70 -65 -167 -81 -11 -2 -60 -13 -110 -24 -49 -12 -151 -32 -225 -46 -74 -13
-140 -26 -147 -28 -6 -3 -28 0 -47 5 -32 9 -35 12 -26 29 6 11 38 32 73 47
147 65 431 216 531 282 156 102 188 108 294 49 28 -17 52 -27 52 -24 0 4 -11
32 -24 64 -13 31 -31 82 -41 112 -10 30 -26 76 -37 102 -19 45 -22 48 -75 58
-101 21 -117 7 -162 -143 -33 -111 -64 -167 -118 -218 -60 -56 -111 -81 -188
-90 -38 -4 -124 -15 -190 -24 -162 -20 -389 -20 -490 0 -150 31 -206 76 -274
220 -64 132 -86 307 -56 441 9 43 24 92 32 109 12 22 13 30 4 33 -15 5 71 87
112 108 15 8 27 18 27 22 0 4 -14 20 -32 35 -18 16 -24 24 -13 18 11 -5 30
-19 42 -30 21 -20 53 -29 53 -14 0 3 -8 15 -17 27 -17 19 -16 18 18 -2 26 -16
45 -20 68 -16 17 4 31 10 31 15 0 16 -71 88 -108 111 -21 12 -53 34 -72 48
-47 37 -177 103 -191 98 -7 -2 14 -19 44 -38 31 -19 55 -35 53 -37 -3 -3 -133
44 -150 55 -14 8 -76 14 -76 7 0 -4 34 -22 76 -41 84 -38 188 -103 179 -112
-3 -3 -18 4 -33 15 -41 31 -98 57 -184 87 -82 28 -108 32 -108 16 0 -5 3 -9 8
-8 10 4 169 -62 217 -89 49 -28 37 -30 -19 -4 -47 22 -147 56 -193 66 -57 12
-36 -11 27 -30 32 -10 69 -29 81 -41 13 -13 28 -24 35 -24 7 0 16 -4 19 -10 8
-13 -23 -2 -55 20 -14 10 -59 28 -100 40 -108 33 -144 50 -132 62 7 7 20 7 41
0 42 -15 49 2 14 33 -25 22 -26 24 -8 25 11 0 26 -4 34 -9 22 -14 41 -2 41 26
l0 25 75 -7 75 -7 0 25 c0 14 4 29 10 32 11 7 156 -67 227 -116 53 -37 42 -53
-13 -19 -19 12 -37 20 -40 17 -7 -7 43 -42 87 -60 35 -14 149 -132 149 -154 0
-12 30 -17 149 -27 55 -5 62 -4 57 10 -14 37 -79 123 -128 170 -53 52 -175
124 -208 124 -10 0 -23 7 -30 15 -16 19 -34 20 -27 1 9 -22 -77 -15 -103 9
-23 21 -19 35 5 15 13 -11 14 -10 9 5 -6 14 -3 16 16 10 14 -4 25 -3 30 4 5 9
14 9 35 1 30 -11 55 -7 55 9 0 5 -9 11 -20 14 -11 3 -20 10 -20 17 0 17 40 2
71 -26z m459 -55 c0 -8 11 -43 25 -77 14 -34 25 -65 25 -69 0 -4 -16 8 -35 27
-41 40 -45 26 -9 -31 35 -56 25 -59 -19 -6 -19 24 -62 57 -95 75 -33 17 -65
39 -72 47 -18 22 -32 18 -25 -7 6 -17 4 -20 -10 -15 -9 4 -21 7 -26 7 -5 0 -9
6 -9 13 0 7 -13 26 -30 42 -57 55 -29 76 35 25 21 -16 39 -30 42 -30 2 0 1 11
-3 25 -8 32 16 34 57 4 16 -11 45 -25 64 -30 25 -7 35 -16 35 -29 0 -25 0 -25
-47 1 l-38 21 45 -41 c25 -23 46 -37 48 -31 2 5 8 8 13 4 14 -8 10 18 -6 46
-18 31 -19 72 -2 89 10 10 14 7 24 -16 7 -15 12 -35 13 -44z m47 44 c7 -10 29
-47 47 -83 19 -36 43 -73 53 -83 13 -12 19 -26 15 -42 -5 -30 -16 -32 -35 -4
-8 11 -23 22 -33 23 -10 2 -20 9 -22 16 -3 9 2 11 22 6 14 -3 26 -4 26 0 0 3
-18 28 -40 54 -22 26 -40 53 -40 59 0 7 -4 9 -10 6 -5 -3 -10 3 -10 14 0 10
-3 26 -6 35 -8 22 15 20 33 -1z m130 -76 c25 -66 52 -94 39 -39 -16 63 -18 82
-8 82 17 0 72 -82 72 -106 0 -29 -16 -39 -36 -23 -20 16 -27 6 -19 -29 6 -30
76 -145 95 -157 5 -3 10 -11 10 -17 0 -19 -26 10 -76 83 -26 38 -52 73 -58 77
-10 6 -36 55 -36 68 0 3 5 2 10 -1 19 -12 9 20 -15 50 -19 22 -25 26 -25 13 0
-26 -27 -11 -35 19 -9 36 11 54 24 22 l10 -24 0 28 c1 46 22 27 48 -46z m957
57 c19 -18 19 -16 6 -48 -16 -42 -70 -25 -70 23 0 12 28 41 40 41 5 0 16 -7
24 -16z m-835 -45 c11 -32 31 -31 31 2 0 26 16 24 23 -2 3 -12 10 -18 17 -14
6 4 8 15 5 26 -4 11 -2 19 4 19 6 0 11 -4 11 -8 0 -5 14 -27 32 -50 l32 -42
28 30 c25 28 48 39 48 24 0 -4 -17 -23 -37 -42 -25 -24 -37 -42 -34 -56 1 -12
4 -22 6 -24 5 -5 65 59 65 69 0 6 56 39 67 39 8 0 2 -37 -11 -62 -8 -15 -12
-29 -9 -32 7 -7 43 38 43 53 0 17 28 13 42 -7 22 -30 38 -35 52 -16 21 28 39
7 33 -37 -3 -22 -1 -39 4 -39 5 0 9 7 9 15 0 8 9 19 19 25 26 13 31 13 31 -5
0 -8 -4 -15 -10 -15 -5 0 -10 -7 -10 -16 0 -13 3 -14 13 -5 16 13 28 5 20 -15
-3 -8 1 -14 11 -14 9 0 16 5 16 10 0 6 7 10 15 10 9 0 15 -9 15 -21 0 -18 4
-20 25 -15 18 5 25 2 25 -9 0 -8 -4 -15 -10 -15 -18 0 -10 -18 10 -23 11 -3
20 -12 20 -21 0 -20 -7 -20 -43 -1 -21 11 -34 12 -48 4 -29 -15 -56 -2 -68 33
-11 30 -12 30 -30 14 -15 -13 -20 -14 -24 -4 -4 10 -8 10 -16 -2 -8 -12 -13
-12 -22 -3 -10 10 -9 16 4 31 16 18 23 42 11 42 -14 0 -59 -66 -56 -84 2 -19
2 -19 -8 -3 -6 9 -9 21 -5 26 3 5 1 12 -5 16 -5 3 -10 22 -10 40 0 27 -3 33
-16 28 -8 -3 -13 -12 -10 -19 3 -8 3 -28 -1 -45 l-6 -31 -30 49 c-16 26 -31
49 -32 51 -6 8 -35 -12 -35 -24 0 -8 -7 -17 -16 -21 -11 -4 -13 -13 -9 -34 9
-42 0 -36 -25 15 -16 34 -19 50 -11 64 7 14 4 31 -15 70 -14 29 -29 50 -35 47
-5 -4 -5 -14 1 -26 6 -11 9 -23 6 -27 -3 -5 2 -21 10 -37 8 -15 12 -36 9 -46
-3 -9 -1 -20 5 -24 5 -3 10 -20 10 -36 0 -17 5 -39 11 -51 12 -22 4 -37 -11
-22 -5 5 -16 34 -24 64 -8 30 -15 51 -16 45 -3 -18 -39 70 -39 96 -1 15 -8 32
-16 39 -13 11 -15 7 -15 -23 0 -19 8 -52 19 -74 64 -132 87 -194 62 -167 -21
23 -61 107 -61 129 0 13 -4 27 -10 30 -5 3 -10 -3 -10 -14 0 -11 -4 -23 -10
-26 -11 -7 -14 25 -11 87 2 21 -4 52 -13 69 -18 35 -21 69 -7 69 5 0 14 -14
20 -31z m511 5 c11 -12 10 -18 -4 -32 -16 -16 -18 -16 -31 2 -11 14 -12 23 -4
33 15 17 24 16 39 -3z m-1302 -49 c12 -13 42 -28 66 -34 24 -6 54 -20 67 -31
l24 -21 -39 16 c-21 8 -46 15 -55 15 -19 0 -131 71 -131 83 0 14 43 -4 68 -28z
m4497 -13 c8 -10 27 -30 41 -47 15 -16 23 -24 20 -17 -4 6 -4 17 -1 23 4 6 18
-13 31 -42 14 -28 23 -53 22 -54 -2 -1 -20 0 -41 3 -48 6 -127 88 -127 132 0
23 4 27 19 23 11 -3 27 -12 36 -21z m-4215 -7 c0 -9 -6 -12 -15 -9 -8 4 -12
10 -9 15 8 14 24 10 24 -6z m69 -99 c-28 -13 -62 19 -46 45 11 17 13 17 39 -9
26 -26 26 -27 7 -36z m63 -4 c-19 -5 -22 0 -15 26 l6 23 11 -23 c10 -18 9 -24
-2 -26z m-173 -43 c29 -33 51 -63 48 -66 -3 -2 -14 5 -24 17 -34 42 -38 46
-73 84 -19 20 -28 35 -19 31 8 -3 39 -33 68 -66z m791 40 c0 -5 -4 -9 -10 -9
-5 0 -10 7 -10 16 0 8 5 12 10 9 6 -3 10 -10 10 -16z m-844 -51 l29 -33 -32
29 c-31 28 -38 36 -30 36 2 0 16 -15 33 -32z m324 -11 c0 -5 -7 -4 -15 3 -8 7
-15 20 -15 29 1 13 3 13 15 -3 8 -11 15 -24 15 -29z m130 33 c0 -5 -4 -10 -10
-10 -5 0 -10 5 -10 10 0 6 5 10 10 10 6 0 10 -4 10 -10z m54 -16 c3 -8 2 -12
-4 -9 -6 3 -10 10 -10 16 0 14 7 11 14 -7z m335 -31 c1 -7 -6 -13 -14 -13 -15
0 -21 40 -8 54 7 7 21 -18 22 -41z m3652 -4 c37 -22 113 -60 170 -85 133 -58
294 -154 363 -215 111 -99 187 -249 200 -394 8 -89 -10 -169 -39 -173 -20 -2
-70 59 -145 178 -16 25 -59 77 -95 115 -37 39 -70 75 -73 80 -9 14 -111 80
-148 97 -16 7 -34 20 -41 29 -11 15 -66 34 -85 30 -5 0 -8 3 -8 9 0 6 -3 9 -7
8 -5 0 -16 2 -25 6 -11 5 -37 -1 -70 -17 -47 -22 -63 -24 -148 -21 -198 8
-245 16 -430 71 -100 30 -114 38 -159 81 l-34 34 29 19 c46 30 111 48 254 69
118 17 144 25 215 61 138 72 182 75 276 18z m-4971 1 c8 -5 11 -10 5 -10 -5 0
-17 5 -25 10 -8 5 -10 10 -5 10 6 0 17 -5 25 -10z m1395 -41 c-7 -20 -8 -21
-17 -5 -5 9 -7 24 -4 33 10 26 29 -1 21 -28z m365 19 c0 -16 -3 -19 -11 -11
-6 6 -8 16 -5 22 11 17 16 13 16 -11z m7618 -12 c2 -10 -2 -22 -9 -26 -20 -13
-39 0 -39 27 0 20 4 24 22 21 13 -2 24 -11 26 -22z m-12228 -16 c18 -12 2 -12
-25 0 -13 6 -15 9 -5 9 8 0 22 -4 30 -9z m4420 0 c0 -5 -5 -10 -11 -10 -5 0
-7 5 -4 10 3 6 8 10 11 10 2 0 4 -4 4 -10z m118 -8 c6 -18 -15 -14 -22 4 -4
10 -1 14 6 12 6 -2 14 -10 16 -16z m518 -7 c-11 -8 -29 -15 -40 -16 -12 0 -33
-2 -48 -4 -16 -2 -28 0 -28 5 0 17 33 27 84 28 47 1 49 0 32 -13z m-2301 -5
c3 -6 -1 -7 -9 -4 -18 7 -21 14 -7 14 6 0 13 -4 16 -10z m8817 -26 c14 -31 1
-57 -30 -62 -24 -4 -37 26 -28 64 9 33 43 32 58 -2z m-7242 -14 c0 -5 -4 -10
-10 -10 -5 0 -10 5 -10 10 0 6 5 10 10 10 6 0 10 -4 10 -10z m6534 -52 c14
-23 -3 -52 -32 -56 -23 -4 -37 26 -27 59 8 24 43 23 59 -3z m-9492 -44 c21 -4
35 -11 32 -15 -3 -5 -10 -7 -15 -4 -5 4 -23 -3 -39 -15 -48 -34 -106 -10 -68
28 13 13 35 15 90 6z m1578 -9 c-7 -8 -17 -15 -23 -15 -6 0 -2 7 9 15 25 19
30 19 14 0z m3939 -29 c9 -10 10 -25 3 -48 -9 -34 -2 -71 17 -83 19 -11 12
-85 -11 -126 -12 -22 -25 -39 -30 -39 -4 0 -8 -6 -8 -13 0 -17 -50 -54 -83
-62 -35 -9 -41 2 -51 100 -3 22 -12 57 -20 77 -9 20 -13 43 -10 51 3 8 1 18
-5 22 -6 3 -11 15 -11 26 0 10 -4 19 -9 19 -17 0 0 37 22 48 36 18 120 41 153
41 17 1 37 -5 43 -13z m3451 -6 c0 -11 -7 -20 -15 -20 -15 0 -21 21 -8 33 12
13 23 7 23 -13z m-1822 -17 c2 -8 -5 -13 -17 -13 -12 0 -21 6 -21 16 0 18 31
15 38 -3z m-6370 0 c-10 -2 -26 -2 -35 0 -10 3 -2 5 17 5 19 0 27 -2 18 -5z
m706 -40 c-46 -59 -60 -73 -49 -53 12 22 76 100 82 100 3 0 -12 -21 -33 -47z
m6812 8 c-11 -18 -36 -13 -36 7 0 10 3 22 7 26 10 10 37 -20 29 -33z m-891
-91 c0 -29 -32 -41 -41 -16 -9 24 4 48 23 44 12 -2 18 -12 18 -28z m-6135 -53
c-331 -114 -628 -266 -775 -397 l-60 -54 45 48 c115 122 359 258 695 386 140
54 154 58 190 59 17 0 -23 -18 -95 -42z m8460 -277 c0 -5 -2 -10 -4 -10 -3 0
-8 5 -11 10 -3 6 -1 10 4 10 6 0 11 -4 11 -10z m-70 -10 c9 5 22 5 29 0 19
-11 6 -42 -16 -39 -10 0 -21 0 -25 -1 -5 -1 -11 -3 -15 -5 -5 -1 -28 -11 -53
-22 -25 -11 -60 -24 -78 -28 -17 -3 -34 -11 -37 -16 -4 -5 -25 -18 -48 -28
-42 -20 -90 -54 -111 -79 -6 -7 -19 -22 -28 -33 -10 -10 -18 -21 -18 -23 0 -3
-11 -17 -24 -31 -14 -15 -28 -41 -32 -58 -7 -32 -63 -126 -76 -126 -14 -1 -9
26 7 39 8 7 15 18 15 24 0 6 14 38 30 71 17 33 30 66 30 75 0 28 98 152 137
172 21 11 43 26 49 34 8 10 21 13 38 8 19 -4 26 -2 26 9 0 24 45 37 127 37 18
0 32 3 32 8 -3 19 2 25 13 14 7 -7 17 -8 28 -2z m-3172 -79 c9 -5 1 -10 -25
-14 -22 -4 -48 -17 -60 -29 -29 -33 -157 -225 -184 -278 -13 -25 -33 -53 -44
-63 -26 -24 -84 -49 -95 -42 -5 3 -11 1 -14 -3 -3 -5 -22 -8 -43 -6 -21 1 -59
2 -85 3 -34 1 -48 5 -48 15 0 13 102 108 189 177 24 19 56 44 69 57 26 23 163
116 242 164 46 28 75 34 98 19z m-6028 -5 c0 -2 -7 -7 -16 -10 -8 -3 -12 -2
-9 4 6 10 25 14 25 6z m9711 -82 c120 -54 200 -221 156 -325 -12 -30 -27 -42
-79 -67 -74 -35 -123 -73 -143 -112 -15 -30 -11 -43 46 -126 84 -125 119 -201
145 -314 15 -63 28 -129 28 -146 1 -18 8 -40 17 -50 8 -11 46 -86 84 -169 90
-198 131 -254 233 -325 18 -12 31 -24 29 -27 -3 -2 -43 9 -90 26 -158 55 -258
69 -562 75 -99 3 -187 7 -195 10 -8 4 -26 29 -40 57 -21 42 -25 66 -25 133 1
99 26 163 88 224 61 59 105 75 191 68 l71 -6 -35 17 c-102 48 -238 116 -260
128 -49 28 -110 136 -156 274 -21 62 -25 90 -21 149 4 67 7 76 38 108 34 35
139 94 168 94 10 0 4 11 -19 35 -28 29 -34 44 -38 90 -9 107 46 185 146 206
63 13 158 2 223 -27z m-9861 -164 c0 -5 -12 -17 -27 -27 -16 -9 -41 -28 -57
-40 -36 -30 -43 -23 -20 16 20 35 104 76 104 51z m-50 -100 c-13 -9 -13 -11 0
-19 12 -8 11 -11 -5 -17 -27 -10 -56 -35 -50 -44 8 -13 -18 -18 -44 -9 -19 8
-21 12 -11 23 6 8 21 16 32 18 29 4 36 28 9 28 -12 0 -21 4 -21 9 0 5 8 8 18
7 9 -2 28 1 42 5 36 11 47 10 30 -1z m280 -14 c0 -22 -29 -41 -42 -28 -8 8 -8
15 2 27 16 19 40 20 40 1z m10051 -41 c255 -61 368 -124 419 -231 34 -70 15
-77 -61 -24 -62 43 -63 43 -218 63 -124 16 -165 17 -201 8 -49 -11 -366 -18
-377 -7 -15 14 73 76 158 113 50 21 105 52 122 69 18 17 37 32 44 33 6 0 58
-10 114 -24z m-10094 -21 c-3 -3 -12 -4 -19 -1 -8 3 -5 6 6 6 11 1 17 -2 13
-5z m1637 -3 c4 -5 2 -20 -3 -34 -15 -39 3 -98 40 -129 18 -15 65 -40 104 -54
155 -59 205 -174 131 -307 -19 -34 -51 -100 -71 -147 -43 -98 -120 -217 -147
-226 -10 -3 -23 -2 -30 3 -20 12 -40 15 -93 15 -27 0 -54 3 -60 8 -5 5 -28 11
-50 15 -22 4 -44 10 -50 14 -5 3 -30 11 -55 16 -28 6 -48 18 -55 30 -10 21
-23 21 -92 0 -18 -6 -21 -4 -16 13 6 25 -11 36 -27 17 -7 -8 -23 -15 -36 -15
-20 0 -24 5 -24 30 0 17 -4 30 -10 30 -5 0 -10 -4 -10 -10 0 -10 -68 -6 -78 4
-3 3 0 11 6 18 7 9 6 19 -4 32 -8 11 -14 28 -14 38 0 10 -4 18 -10 18 -5 0
-10 7 -10 15 0 9 6 12 15 9 10 -4 15 0 15 10 0 13 -4 15 -19 6 -11 -5 -32 -10
-47 -10 -22 0 -25 2 -14 15 7 8 19 15 27 15 8 0 13 7 11 18 -2 11 -13 17 -28
17 -21 0 -25 4 -22 24 3 32 9 38 24 23 7 -7 15 -12 19 -12 10 0 17 50 8 56 -5
3 -9 0 -9 -5 0 -6 -7 -11 -15 -11 -8 0 -15 9 -15 20 0 12 7 20 16 20 12 0 15
6 10 25 -4 14 -2 25 4 25 5 0 10 6 10 14 0 7 9 16 21 19 11 3 23 14 26 24 10
34 118 115 218 164 90 44 362 147 392 148 6 1 14 -3 17 -8z m-1594 -7 c0 -10
-31 -36 -37 -31 -10 10 6 37 22 37 8 0 15 -3 15 -6z m-336 -55 c-3 -6 0 -15 7
-20 19 -11 7 -19 -35 -25 -42 -5 -44 1 -14 33 22 23 55 33 42 12z m296 -24 c0
-14 -4 -25 -9 -25 -12 0 -23 29 -15 41 10 18 24 9 24 -16z m-320 -45 c0 -9
-31 -30 -44 -30 -14 0 -4 29 12 33 29 8 32 7 32 -3z m40 -102 c8 3 4 -4 -10
-15 -23 -19 -56 -21 -45 -3 9 15 -15 22 -30 10 -17 -15 -19 -6 -5 20 10 19 11
19 43 1 17 -10 39 -16 47 -13z m-41 -82 c9 -10 8 -16 -4 -26 -13 -11 -15 -8
-15 14 0 30 3 32 19 12z m7271 -76 c74 -6 176 -17 225 -26 50 -8 98 -16 107
-17 9 -1 15 -4 12 -8 -2 -4 -88 -10 -191 -14 -240 -9 -386 -27 -445 -54 -26
-11 -56 -21 -68 -21 -11 0 -23 -7 -27 -16 -6 -15 -8 -15 -20 2 -12 17 -13 17
-13 -5 0 -13 -17 -39 -40 -62 -36 -36 -40 -45 -39 -87 1 -52 8 -101 35 -242
10 -52 17 -110 17 -127 -1 -18 3 -33 8 -33 5 0 9 -12 9 -27 0 -62 -18 -8 -111
337 -11 41 -34 116 -50 165 -26 77 -36 94 -69 118 -21 15 -44 27 -52 27 -8 0
-32 -18 -53 -40 -47 -48 -65 -51 -65 -10 0 44 19 76 63 107 38 27 48 28 181
34 247 10 447 9 586 -1z m706 -50 c45 1 85 -3 88 -8 3 -6 55 -10 120 -10 139
0 196 -8 196 -29 0 -11 -7 -14 -25 -11 -13 3 -24 2 -23 -1 2 -18 -4 -22 -17
-11 -11 9 -19 9 -28 2 -8 -7 -38 -9 -78 -6 -35 2 -82 5 -104 5 -22 0 -60 4
-85 9 -25 4 -84 16 -132 25 -71 14 -91 15 -103 5 -8 -7 -15 -10 -15 -7 0 3 -3
14 -7 24 -3 10 -3 15 1 11 4 -3 19 0 32 7 18 9 35 10 62 3 20 -6 74 -9 118 -8z
m-6676 -250 c0 -5 -5 -10 -11 -10 -5 0 -7 5 -4 10 3 6 8 10 11 10 2 0 4 -4 4
-10z m9368 -32 c33 -33 -17 -78 -53 -48 -26 22 -10 60 25 60 9 0 21 -5 28 -12z
m-6987 -215 c13 -16 12 -17 -3 -4 -10 7 -18 15 -18 17 0 8 8 3 21 -13z m448
-10 c17 -15 31 -32 31 -37 0 -5 6 -14 14 -20 20 -15 31 -57 15 -54 -23 5 -49
32 -49 50 0 11 -7 18 -19 18 -15 0 -18 5 -14 23 4 18 3 19 -6 7 -6 -9 -11 -10
-11 -3 0 6 -3 18 -6 27 -9 24 10 19 45 -11z m383 -101 c-6 -2 -9 -9 -6 -17 3
-7 1 -16 -5 -20 -15 -9 -14 28 2 62 l12 27 3 -24 c2 -13 -1 -26 -6 -28z m-285
-24 c-3 -8 -6 -5 -6 6 -1 11 2 17 5 13 3 -3 4 -12 1 -19z m27 -24 c3 -8 2 -12
-4 -9 -6 3 -10 10 -10 16 0 14 7 11 14 -7z m56 -74 c0 -5 -2 -10 -4 -10 -3 0
-8 5 -11 10 -3 6 -1 10 4 10 6 0 11 -4 11 -10z m0 -40 c0 -5 -4 -10 -9 -10 -6
0 -13 5 -16 10 -3 6 1 10 9 10 9 0 16 -4 16 -10z m2918 -137 c-10 -2 -26 -2
-35 0 -10 3 -2 5 17 5 19 0 27 -2 18 -5z m160 0 c-10 -2 -26 -2 -35 0 -10 3
-2 5 17 5 19 0 27 -2 18 -5z m-60 -74 c-3 -33 -4 -33 -8 8 -3 23 -2 39 3 34 5
-5 7 -24 5 -42z m-172 -34 c5 -38 8 -45 14 -30 5 11 6 39 3 63 -4 25 -2 42 4
42 10 0 14 -28 29 -214 l7 -78 -24 7 c-33 10 -51 30 -21 22 18 -4 22 -2 18 10
-3 8 -6 20 -6 26 0 7 -4 6 -9 -2 -12 -18 -18 20 -25 144 -5 93 -2 96 10 10z
m331 -126 c-3 -83 -9 -154 -13 -158 -4 -3 -4 36 0 88 3 52 6 123 6 158 0 34 3
63 6 63 4 0 4 -68 1 -151z m-160 69 c-2 -13 -4 -5 -4 17 -1 22 1 32 4 23 2
-10 2 -28 0 -40z m-44 -18 c3 -11 1 -18 -4 -14 -5 3 -9 0 -9 -7 0 -7 -2 -10
-5 -8 -4 5 5 49 10 49 1 0 5 -9 8 -20z m6 -108 c1 -15 -4 -22 -11 -19 -7 2
-13 9 -12 15 1 7 2 24 3 40 2 24 3 25 11 7 5 -11 9 -30 9 -43z m-5 -48 c3 -8
2 -12 -4 -9 -6 3 -10 10 -10 16 0 14 7 11 14 -7z m-6618 -84 c8 0 14 7 14 15
0 19 14 19 30 0 16 -19 6 -32 -30 -40 -17 -4 -30 -10 -30 -14 0 -4 -18 -14
-40 -21 -22 -7 -40 -17 -40 -23 0 -5 -13 -7 -30 -5 -18 3 -31 0 -34 -9 -3 -7
-9 -12 -13 -11 -15 4 -53 -23 -53 -37 0 -11 -8 -13 -29 -9 -21 4 -30 2 -34
-11 -4 -9 -11 -14 -17 -10 -5 3 -20 -3 -32 -15 -13 -11 -24 -16 -26 -10 -5 13
-52 1 -71 -17 -9 -10 -17 -11 -24 -4 -7 7 -19 4 -39 -10 -23 -17 -32 -18 -43
-9 -16 13 -50 6 -41 -9 6 -9 -49 -21 -103 -21 -29 0 -32 2 -21 15 10 12 10 15
-4 15 -9 0 -16 6 -16 14 0 9 -8 13 -22 10 -22 -4 -22 -4 -3 5 12 5 27 16 34
25 15 18 31 21 31 6 0 -6 -10 -15 -22 -20 l-23 -9 22 0 c12 -1 24 3 27 8 5 8
42 15 157 29 31 4 63 13 71 19 8 7 24 10 35 7 14 -4 29 2 43 16 15 15 25 18
34 11 17 -14 73 7 79 31 4 14 12 17 35 12 24 -5 32 -2 42 16 8 15 18 20 32 17
11 -3 42 4 69 16 40 18 48 25 43 42 -6 18 -6 18 10 2 10 -9 24 -17 32 -17z
m6818 -25 c3 -8 1 -15 -4 -15 -6 0 -10 7 -10 15 0 8 2 15 4 15 2 0 6 -7 10
-15z m616 -5 c0 -11 -2 -20 -4 -20 -2 0 -6 9 -9 20 -3 11 -1 20 4 20 5 0 9 -9
9 -20z m30 -94 c0 -36 -17 -23 -20 14 -3 38 -1 46 10 30 5 -8 10 -28 10 -44z
m2256 -26 c44 -22 104 -58 134 -79 30 -22 95 -65 144 -96 75 -48 99 -58 148
-62 32 -3 62 -11 67 -17 17 -20 69 -190 96 -311 15 -69 29 -167 32 -231 l6
-111 -77 -76 c-69 -69 -79 -76 -101 -67 -14 5 -25 14 -25 20 0 5 -7 10 -15 10
-8 0 -15 -5 -15 -11 0 -8 -15 -10 -49 -5 -45 6 -51 4 -70 -20 -12 -15 -21 -35
-21 -45 0 -10 -13 -25 -29 -33 -16 -9 -31 -22 -34 -31 -4 -8 -18 -15 -32 -15
-14 0 -25 -4 -25 -10 0 -5 -5 -10 -11 -10 -5 0 -8 4 -5 9 3 4 -6 18 -19 31
-20 19 -31 22 -65 16 -23 -4 -39 -3 -36 2 3 5 -12 6 -34 2 l-39 -7 -6 41 c-2
23 -6 96 -7 163 l-3 123 28 9 27 10 0 240 0 240 -27 20 c-55 41 -55 42 -47 75
11 40 11 147 1 214 -7 47 -6 52 11 52 11 0 55 -18 98 -40z m-2236 -39 c0 -11
3 -28 6 -38 3 -10 -2 -7 -10 7 -18 29 -20 50 -6 50 6 0 10 -9 10 -19z m-9761
-433 c1 -49 -2 -88 -6 -88 -5 0 -9 42 -10 93 0 50 -4 122 -8 159 -3 38 -3 74
2 80 9 15 20 -112 22 -244z m11796 151 c-59 -12 -378 -11 -370 1 4 6 83 10
208 9 135 -1 189 -4 162 -10z m-11825 -309 c0 -5 -5 -10 -11 -10 -5 0 -7 5 -4
10 3 6 8 10 11 10 2 0 4 -4 4 -10z m9607 -65 c24 -17 39 -71 28 -104 -7 -22
-55 -31 -55 -11 0 6 -9 10 -19 10 -15 0 -21 10 -26 40 -12 74 19 102 72 65z
m80 -240 c13 -9 24 -31 28 -57 3 -24 9 -51 11 -60 9 -31 -20 -20 -64 25 -39
40 -54 82 -35 100 11 11 37 8 60 -8z m-6637 -114 l45 -8 -60 -2 c-92 -2 -378
-28 -495 -46 -255 -38 -371 -60 -607 -114 -46 -10 -80 -14 -76 -9 4 7 -7 8
-33 4 -38 -7 -38 -7 -17 9 42 30 92 45 280 85 237 50 358 69 497 79 147 11
410 12 466 2z m9444 -136 c8 -22 26 -79 40 -126 14 -47 37 -102 51 -123 31
-45 31 -46 0 -46 -18 0 -32 11 -49 38 -57 86 -118 285 -102 328 7 18 9 17 26
-6 11 -14 26 -43 34 -65z m-105 58 c5 -10 11 -31 12 -48 4 -27 1 -30 -20 -27
-27 3 -61 29 -61 45 0 15 31 47 46 47 7 0 17 -8 23 -17z m-6476 -48 c12 -17
14 -26 5 -31 -12 -8 -38 21 -38 43 0 20 13 15 33 -12z m-393 -46 c0 -6 -4 -7
-10 -4 -5 3 -10 11 -10 16 0 6 5 7 10 4 6 -3 10 -11 10 -16z m-1642 -11 c34
-34 -11 -96 -105 -143 -182 -90 -486 -148 -930 -176 -263 -16 -967 -7 -1093
15 -109 19 -199 59 -217 96 -11 22 -23 27 -90 37 -196 29 -233 37 -233 53 0 5
26 12 58 15 146 17 251 36 278 50 16 8 38 15 50 15 11 0 29 7 40 15 11 8 42
14 74 15 54 0 54 0 30 -17 -112 -74 -128 -148 -42 -192 102 -52 531 -91 847
-77 371 16 966 107 1173 180 69 25 132 73 132 101 0 27 9 32 28 13z m3853
-103 c10 -27 19 -55 19 -62 0 -16 -197 -60 -344 -78 -303 -35 -760 -44 -828
-17 -49 20 -28 51 45 67 16 3 97 12 180 20 470 44 701 74 822 109 75 22 84 18
106 -39z m-2406 5 c3 -5 3 -10 -2 -10 -4 0 -13 -11 -20 -25 -6 -14 -7 -23 -3
-20 5 3 11 1 15 -5 3 -5 -1 -10 -9 -10 -28 0 -17 -18 15 -25 17 -4 28 -9 25
-12 -8 -8 -76 18 -76 29 0 17 34 87 42 88 4 0 10 -4 13 -10z m2306 -312 c-27
-196 -53 -345 -86 -493 -13 -60 -32 -155 -42 -210 -25 -143 -28 -84 -4 86 11
79 29 221 41 314 54 445 57 461 83 477 28 17 29 -16 8 -174z m-6643 157 c92
-7 244 -19 337 -26 126 -8 172 -15 178 -25 4 -8 23 -14 41 -14 18 0 41 -7 52
-15 18 -14 16 -15 -21 -10 -22 3 -141 12 -265 20 -322 22 -440 36 -440 52 0 8
-15 14 -42 14 -70 3 -76 4 -84 12 -11 11 58 9 244 -8z m6562 -13 c0 -4 -5 -45
-10 -92 -5 -47 -26 -241 -45 -431 -59 -587 -150 -1217 -181 -1248 -24 -26 -28
-3 -15 96 17 141 47 416 81 743 16 157 34 326 40 375 6 50 22 193 35 318 14
126 27 232 30 236 5 10 65 12 65 3z m-144 -114 c-3 -57 -17 -213 -31 -348 -13
-135 -31 -324 -40 -420 -23 -259 -45 -470 -61 -605 -8 -66 -19 -160 -25 -210
-11 -93 -22 -115 -62 -115 -18 0 -19 5 -14 63 4 34 16 168 27 297 11 129 22
251 25 270 3 19 12 118 20 220 9 102 24 266 35 365 10 99 27 266 36 370 9 105
21 196 27 203 5 6 23 12 40 12 l30 0 -7 -102z m-159 -30 c-3 -68 -25 -332 -47
-588 -23 -256 -54 -608 -69 -783 -28 -336 -28 -337 -78 -337 -27 0 -28 7 -13
190 6 69 17 211 26 315 8 105 22 280 29 390 25 356 55 778 61 852 6 79 -1 72
83 81 12 2 13 -19 8 -120z m-180 -60 c-4 -84 -15 -283 -26 -443 -11 -159 -25
-375 -31 -480 -19 -331 -40 -658 -47 -714 -6 -49 -9 -54 -41 -68 -19 -8 -36
-12 -38 -10 -3 2 0 89 6 193 26 498 70 1481 70 1575 0 89 7 98 74 99 l39 0 -6
-152z m-197 25 c0 -101 -5 -277 -30 -1037 -10 -311 -28 -686 -35 -721 -3 -12
-20 -29 -41 -39 l-37 -17 6 258 c4 142 11 553 17 913 6 360 13 674 16 697 5
44 13 50 72 52 l32 1 0 -107z m-203 -245 c-4 -178 -10 -585 -14 -905 -4 -365
-10 -583 -16 -583 -6 0 -7 -18 -4 -42 4 -27 3 -36 -2 -23 -8 19 -9 18 -13 -5
-2 -14 -4 3 -4 38 0 41 3 58 9 50 6 -9 6 -6 2 7 -4 11 -11 36 -15 55 -8 33 -8
33 -7 -12 0 -26 -3 -51 -7 -55 -5 -5 -6 23 -3 60 5 76 -2 155 -13 137 -9 -15
-20 608 -20 1151 l0 438 28 4 c15 2 40 5 56 6 l29 1 -6 -322z m6077 269 c16
-11 17 -17 7 -36 -8 -15 -20 -21 -34 -19 -25 3 -34 32 -17 53 15 18 21 19 44
2z m-6281 -387 c2 -230 2 -319 -3 -220 -8 179 -12 616 -6 609 2 -2 6 -177 9
-389z m2747 300 c-8 -5 -22 -9 -30 -9 -10 0 -8 3 5 9 27 12 43 12 25 0z m97
-6 c-3 -3 -12 -4 -19 -1 -8 3 -5 6 6 6 11 1 17 -2 13 -5z m119 -30 c18 -14 18
-15 -6 -8 -31 8 -50 24 -29 24 8 0 24 -7 35 -16z m-281 -274 c4 -6 1 -17 -5
-25 -9 -11 -10 -18 -1 -29 10 -12 22 -91 25 -171 1 -16 5 -36 9 -42 5 -9 3
-13 -7 -13 -20 0 -20 -9 1 -32 15 -17 15 -18 -2 -18 -16 0 -16 -2 -1 -25 9
-14 16 -31 14 -38 -1 -6 6 -34 16 -60 24 -60 15 -72 -57 -73 l-51 0 -1 -37
c-2 -41 -17 -64 -48 -71 -12 -2 3 -4 33 -2 34 1 77 13 114 29 65 30 122 35
152 13 17 -13 17 -16 4 -30 -23 -23 -206 -69 -246 -61 -19 3 -33 9 -31 13 3
10 -12 15 -63 23 -25 3 -53 10 -62 14 -13 5 -18 3 -18 -9 0 -21 -45 -11 -71
15 -11 11 -27 19 -38 19 -15 0 -18 -7 -15 -35 l2 -36 -46 7 c-38 6 -54 15 -84
48 -33 37 -37 39 -38 19 0 -27 -34 -32 -44 -8 -3 8 -12 15 -19 15 -8 0 -20 7
-27 15 -7 9 -14 14 -16 12 -7 -6 18 -71 34 -89 17 -20 5 -24 -18 -5 -8 7 -34
38 -58 70 -40 54 -62 70 -62 46 0 -5 4 -8 9 -5 5 3 11 -4 14 -15 5 -19 4 -20
-12 -5 -10 9 -24 16 -31 16 -7 0 15 26 48 59 34 32 62 64 62 72 0 8 25 34 55
59 30 25 55 49 55 53 0 5 15 27 34 50 19 23 54 78 78 123 23 44 52 93 64 108
l20 28 34 -17 c42 -22 144 -15 217 14 57 23 70 24 78 11z m-1252 -247 c41 -21
67 -84 67 -166 0 -68 -34 -262 -49 -282 -8 -9 -43 -106 -55 -150 -3 -11 -3 0
0 25 3 25 5 52 5 60 1 8 3 22 6 30 3 8 5 41 3 72 -1 39 4 65 15 82 12 17 15
35 10 53 -7 29 -71 93 -92 93 -7 0 -21 9 -30 20 -10 11 -23 20 -31 20 -7 0
-10 5 -6 12 4 6 3 8 -4 4 -6 -3 -17 1 -25 9 -9 8 -21 15 -27 15 -7 0 -10 7 -6
15 3 10 -3 17 -20 21 -20 5 -22 9 -13 21 55 66 172 88 252 46z m3674 -94 c85
-6 150 -17 185 -30 29 -11 69 -25 88 -31 48 -14 133 -50 146 -63 6 -5 36 -30
65 -54 67 -56 102 -97 104 -125 2 -12 8 -20 16 -18 8 2 6 -4 -6 -18 -16 -18
-27 -20 -69 -16 -76 8 -102 12 -114 20 -7 4 -12 2 -12 -5 0 -8 -4 -8 -15 1 -9
7 -18 10 -21 7 -3 -3 -20 -1 -37 4 -78 23 -145 27 -254 15 -61 -7 -118 -17
-125 -24 -8 -6 -41 -18 -74 -26 -32 -8 -86 -21 -119 -30 -32 -9 -81 -16 -107
-16 -26 0 -48 -4 -48 -10 0 -5 -17 -10 -37 -10 -21 0 -47 -7 -57 -15 -11 -8
-30 -15 -43 -15 -13 0 -23 -4 -23 -10 0 -5 -18 -10 -40 -10 -22 0 -40 -3 -40
-8 0 -4 -18 -6 -40 -4 -22 2 -40 8 -40 13 0 10 -3 10 -190 9 -106 -1 -130 -4
-159 -21 -20 -12 -42 -17 -55 -14 -17 5 -18 4 -6 -5 12 -9 3 -10 -38 -7 -29 2
-55 0 -58 -4 -3 -5 -20 -9 -39 -9 -19 0 -37 -4 -40 -10 -3 -5 -17 -10 -31 -10
-13 0 -24 -4 -24 -8 0 -14 -84 -46 -122 -46 -22 0 -38 -5 -38 -12 0 -10 -82
-25 -152 -28 -29 -1 -37 -11 -15 -19 6 -3 -6 -6 -28 -6 -29 -1 -44 -7 -53 -21
-7 -12 -23 -20 -38 -20 -26 0 -106 -37 -112 -52 -2 -5 -10 -8 -17 -8 -8 0 -19
-9 -25 -19 -7 -13 -20 -19 -40 -19 -17 1 -36 -4 -43 -11 -9 -10 -6 -10 16 -2
21 8 27 8 27 -3 0 -8 -16 -16 -40 -20 -42 -7 -48 -14 -28 -34 9 -9 9 -12 -2
-12 -7 0 -28 -11 -46 -25 -18 -14 -39 -25 -47 -25 -8 0 -27 -10 -42 -22 -16
-12 -37 -24 -47 -25 -11 -2 -36 -14 -56 -28 -20 -14 -43 -25 -50 -25 -9 0 -12
-6 -8 -15 3 -10 -1 -15 -11 -15 -25 0 -93 -32 -93 -44 0 -6 -17 -12 -38 -14
-63 -5 -120 -23 -132 -42 -10 -16 -125 -62 -190 -76 -36 -8 -78 -20 -95 -28
-58 -27 -81 -35 -155 -52 -41 -9 -82 -23 -91 -30 -21 -19 -29 -18 -30 4 0 13
-2 14 -6 2 -8 -21 -24 -30 -53 -31 -23 0 -23 -1 -5 -8 16 -7 8 -11 -37 -21
-32 -7 -58 -19 -58 -25 0 -7 -16 -16 -36 -20 -20 -3 -43 -13 -51 -21 -9 -8
-23 -12 -32 -10 -71 21 -71 21 -71 -23 0 -34 -3 -41 -20 -41 -17 0 -20 7 -20
40 0 39 -1 40 -35 40 -24 0 -39 6 -47 20 -9 14 -24 20 -50 20 -20 0 -38 3 -41
8 -2 4 -2 1 -1 -5 4 -15 -19 -28 -64 -37 -71 -13 -90 -88 -35 -134 18 -16 24
-26 16 -29 -9 -3 -10 -10 -3 -23 24 -44 8 -227 -26 -297 -15 -29 -30 -51 -34
-48 -5 3 -11 1 -14 -4 -3 -4 -17 -8 -31 -8 -40 0 -69 51 -126 220 -11 34 -24
67 -28 72 -4 6 -8 30 -10 55 -3 77 -38 156 -89 201 -130 114 -329 180 -557
183 -66 1 -126 5 -132 9 -39 24 11 85 96 121 38 16 74 20 215 22 147 2 172 4
182 19 8 10 32 19 59 23 29 3 42 8 34 13 -9 5 -3 10 17 14 62 13 133 37 150
50 11 8 29 15 41 15 13 0 32 13 45 30 13 18 28 28 36 25 17 -6 183 80 195 101
4 8 21 14 38 14 17 0 36 8 46 20 10 11 27 20 40 20 12 0 25 5 28 10 3 6 19 10
34 10 15 0 47 10 72 22 24 12 47 21 50 20 3 0 37 10 75 24 115 42 182 61 474
134 61 15 183 40 265 54 44 8 118 28 164 45 47 17 95 31 106 31 12 0 35 7 51
15 17 8 55 15 87 16 31 1 54 6 51 11 -3 4 2 8 11 8 9 0 30 7 47 16 17 9 54 17
83 19 29 2 63 8 74 15 12 6 25 9 30 6 9 -6 73 13 81 24 10 13 73 30 111 30 21
0 40 4 43 9 5 7 48 18 101 25 99 14 128 19 173 28 28 6 52 14 52 18 0 4 14 7
30 8 17 0 47 6 66 12 19 7 38 10 40 7 3 -3 21 -1 41 5 29 8 37 6 49 -9 13 -17
13 -17 14 0 0 14 4 16 19 7 28 -14 61 -12 61 4 0 7 12 16 28 19 15 3 52 10 82
15 30 6 69 13 85 16 17 2 64 14 105 26 41 12 102 26 135 30 33 4 83 13 110 18
48 10 166 28 230 36 66 7 218 5 342 -5z m-3917 -45 c145 -43 231 -162 195
-272 -10 -34 -28 -27 -20 8 5 24 4 29 -8 24 -10 -3 -22 4 -32 20 -20 31 -35
34 -35 7 0 -10 -8 -29 -18 -40 l-17 -22 -54 40 c-30 23 -58 41 -62 41 -4 0
-21 12 -38 26 -21 17 -31 21 -31 12 0 -8 5 -19 12 -26 6 -6 9 -15 5 -19 -9 -9
-36 27 -37 49 0 9 -4 20 -10 23 -25 16 -2 115 32 136 20 13 59 11 118 -7z
m-1173 -286 c-2 -13 -4 -3 -4 22 0 25 2 35 4 23 2 -13 2 -33 0 -45z m4273
-148 c0 -5 -13 -10 -30 -10 -16 0 -30 5 -30 10 0 6 14 10 30 10 17 0 30 -4 30
-10z m-110 -38 c0 -5 -7 -9 -15 -9 -8 0 -15 4 -15 9 0 4 7 8 15 8 8 0 15 -4
15 -8z m-2793 -34 c-3 -8 -6 -5 -6 6 -1 11 2 17 5 13 3 -3 4 -12 1 -19z m2468
-38 c-3 -5 -10 -10 -16 -10 -5 0 -9 5 -9 10 0 6 7 10 16 10 8 0 12 -4 9 -10z
m98 3 c-7 -2 -21 -2 -30 0 -10 3 -4 5 12 5 17 0 24 -2 18 -5z m-6443 -73 c0
-5 -5 -10 -11 -10 -5 0 -7 5 -4 10 3 6 8 10 11 10 2 0 4 -4 4 -10z m-2935
-110 c3 -6 -1 -7 -9 -4 -18 7 -21 14 -7 14 6 0 13 -4 16 -10z m72 -22 c-3 -8
-6 -5 -6 6 -1 11 2 17 5 13 3 -3 4 -12 1 -19z m-161 -45 c-3 -4 -6 -1 -6 6 0
9 -5 9 -20 1 -17 -9 -20 -8 -20 13 0 36 10 39 32 11 11 -14 18 -28 14 -31z
m234 47 c0 -5 -4 -10 -10 -10 -5 0 -10 5 -10 10 0 6 5 10 10 10 6 0 10 -4 10
-10z m-135 -21 c0 -18 -47 -19 -51 -1 -1 7 0 8 3 2 6 -12 43 -13 43 -1 0 5 -5
12 -10 14 -6 3 -5 4 2 3 7 -2 13 -9 13 -17z m164 -12 c-13 -28 -29 -27 -29 1
0 14 2 14 9 3 7 -11 10 -9 16 8 4 13 9 20 11 18 3 -2 -1 -16 -7 -30z m-52 -9
c-3 -8 -6 -5 -6 6 -1 11 2 17 5 13 3 -3 4 -12 1 -19z m-322 3 c3 -5 1 -12 -5
-16 -5 -3 -10 1 -10 9 0 18 6 21 15 7z m465 -2 c12 -8 10 -9 -7 -4 -21 6 -33
-8 -15 -18 4 -2 1 -2 -5 -1 -7 2 -13 -4 -13 -12 0 -8 -4 -12 -10 -9 -6 4 -4
16 6 31 18 27 23 28 44 13z m-470 -35 c0 -8 -19 -13 -24 -6 -3 5 1 9 9 9 8 0
15 -2 15 -3z m-32 -29 c-3 -3 -9 2 -12 12 -6 14 -5 15 5 6 7 -7 10 -15 7 -18z
m590 -18 c-2 -11 -9 -22 -16 -23 -7 -1 -8 0 -2 3 11 5 14 36 3 46 -3 4 -15 0
-25 -9 -15 -14 -16 -20 -5 -33 11 -14 10 -14 -6 -2 -17 13 -17 15 4 37 17 19
25 21 36 12 8 -6 13 -20 11 -31z m-628 -20 c0 -6 -9 -2 -20 8 -11 10 -20 23
-20 28 0 6 9 2 20 -8 11 -10 20 -23 20 -28z m6728 -29 c-2 -6 -10 -13 -16 -14
-7 -1 -8 0 -2 3 5 2 8 9 4 14 -3 5 0 9 6 9 7 0 10 -5 8 -12z m-6373 -44 c33
-21 39 -43 18 -68 -17 -19 -17 -20 0 -7 20 15 22 4 4 -20 -24 -31 -56 -42 -87
-29 -57 23 -61 87 -8 124 28 20 43 20 73 0z m348 -3 c-13 -11 -23 -25 -24 -33
0 -10 -2 -10 -6 0 -6 15 24 52 41 52 6 -1 1 -9 -11 -19z m3447 -6 c60 -31 90
-95 89 -192 0 -70 -15 -172 -18 -123 -1 18 -4 21 -10 11 -7 -11 -10 -9 -16 8
-3 12 -10 19 -15 16 -5 -3 -6 -13 -3 -23 6 -16 6 -16 -11 1 -9 9 -22 17 -28
17 -6 0 -20 7 -30 17 -17 15 -18 15 -18 -5 0 -24 -15 -30 -23 -9 -3 6 -6 2 -6
-11 -1 -19 -5 -22 -21 -17 -14 5 -20 2 -20 -10 0 -14 -4 -13 -27 5 -16 12 -28
27 -28 34 0 17 -25 53 -68 100 -30 33 -34 42 -26 63 11 29 12 63 2 62 -5 -1
-17 -1 -28 0 -20 2 -20 2 -1 16 47 36 139 8 174 -53 l22 -37 0 32 c0 22 -9 41
-31 62 l-31 31 34 15 c36 15 96 11 138 -10z m-4236 -14 c-2 -3 -12 3 -22 13
-16 17 -16 18 5 5 12 -7 20 -15 17 -18z m802 -20 c-13 -15 -14 -20 -4 -24 8
-4 7 -6 -4 -6 -20 -1 -24 14 -7 25 8 4 7 9 -2 15 -10 6 -7 9 10 9 23 0 23 -1
7 -19z m-861 -51 l20 -25 -22 19 c-13 11 -23 24 -23 29 0 6 1 8 3 6 1 -2 11
-15 22 -29z m35 26 c0 -2 -7 -6 -15 -10 -8 -3 -15 -1 -15 4 0 6 7 10 15 10 8
0 15 -2 15 -4z m637 -48 c6 -7 16 -42 22 -77 7 -34 15 -69 18 -77 9 -25 -27
-27 -107 -4 -82 23 -100 39 -74 65 13 13 19 13 33 3 14 -11 14 -11 4 3 -11 13
-10 19 5 33 10 9 22 14 25 11 4 -3 5 -2 2 2 -7 9 35 53 51 53 6 0 16 -6 21
-12z m5343 -19 c-7 -11 -14 -19 -16 -16 -7 7 7 37 17 37 6 0 5 -9 -1 -21z
m-5133 5 c-3 -3 -12 -4 -19 -1 -8 3 -5 6 6 6 11 1 17 -2 13 -5z m-493 -101
c23 -48 36 -64 56 -68 33 -7 90 -42 90 -55 0 -5 -14 -17 -31 -26 -17 -8 -28
-11 -25 -5 4 6 -11 -1 -33 -16 -22 -14 -42 -36 -46 -50 -3 -13 -10 -21 -14
-18 -5 3 -7 -3 -4 -13 2 -10 -4 -29 -15 -42 l-19 -23 -22 22 c-14 14 -21 30
-18 42 3 10 2 17 -2 15 -4 -3 -12 8 -19 24 -9 21 -27 33 -63 46 -68 25 -80 41
-49 66 13 11 32 17 42 15 10 -3 16 -1 13 3 -7 12 32 23 46 14 7 -4 9 -3 6 2
-9 15 51 136 66 132 6 -2 25 -31 41 -65z m546 42 c0 -11 -10 -15 -32 -14 -31
2 -31 2 -5 6 15 2 27 9 27 14 0 5 2 9 5 9 3 0 5 -7 5 -15z m-947 -22 c-7 -2
-19 -2 -25 0 -7 3 -2 5 12 5 14 0 19 -2 13 -5z m-23 -28 c0 -8 -7 -15 -15 -15
-13 0 -14 3 -3 15 16 18 18 18 18 0z m970 -42 c-8 -3 -18 -11 -22 -17 -5 -7
-8 -4 -8 7 0 11 7 17 23 16 15 0 17 -2 7 -6z m-27 -40 c-7 -2 -19 -2 -25 0 -7
3 -2 5 12 5 14 0 19 -2 13 -5z m-966 -25 c-3 -8 -6 -5 -6 6 -1 11 2 17 5 13 3
-3 4 -12 1 -19z m46 15 c-7 -2 -19 -2 -25 0 -7 3 -2 5 12 5 14 0 19 -2 13 -5z
m4374 -70 c-3 -10 -5 -2 -5 17 0 19 2 27 5 18 2 -10 2 -26 0 -35z m-4350 1
c-3 -3 -12 -4 -19 -1 -8 3 -5 6 6 6 11 1 17 -2 13 -5z m888 -62 c-3 -3 -12 3
-20 14 -13 17 -14 17 -15 2 0 -10 -7 -18 -16 -18 -14 0 -14 1 0 16 9 8 13 21
9 27 -3 7 6 1 20 -12 15 -14 25 -27 22 -29z m6375 8 c0 -5 -18 -10 -40 -10
-22 0 -40 5 -40 10 0 6 18 10 40 10 22 0 40 -4 40 -10z m-7240 -9 c0 -6 -5
-13 -10 -16 -6 -4 -8 -11 -5 -16 4 -5 -2 -9 -11 -9 -16 0 -16 1 0 19 13 15 14
20 4 24 -8 4 -7 6 5 6 9 1 17 -3 17 -8z m20 -34 c0 -13 -35 -47 -48 -47 -4 1
3 9 16 20 13 11 21 24 17 30 -3 5 -1 10 4 10 6 0 11 -6 11 -13z m3540 -1 c19
-6 34 -18 32 -25 -1 -7 2 -10 6 -7 5 3 18 -6 28 -20 11 -14 29 -38 42 -52 13
-15 28 -36 33 -47 5 -11 13 -27 17 -35 36 -63 37 -85 4 -73 -15 6 -15 4 2 -15
18 -21 18 -21 -9 -16 -16 3 -60 16 -99 30 -39 14 -91 32 -116 40 -48 14 -110
61 -113 85 -2 8 -6 19 -10 26 -4 6 -5 31 -3 54 3 37 8 46 32 56 37 16 109 15
154 -1z m3520 -8 c0 -12 -1 -19 -3 -17 -1 2 -9 12 -16 22 -12 14 -11 17 3 17
10 0 16 -8 16 -22z m-6276 -13 c11 -8 16 -15 10 -15 -5 0 -18 7 -28 15 -11 8
-16 15 -10 15 5 0 18 -7 28 -15z m6356 -45 c0 -5 -4 -10 -10 -10 -5 0 -10 5
-10 10 0 6 5 10 10 10 6 0 10 -4 10 -10z m120 -15 c-6 -8 -19 -11 -27 -8 -14
5 -14 8 2 19 22 16 40 8 25 -11z m-7197 -22 c-14 -5 -18 -35 -6 -46 3 -4 15 0
25 9 15 14 16 20 5 33 -11 14 -10 14 6 2 17 -13 17 -15 -4 -37 -17 -18 -25
-21 -36 -13 -22 19 -15 60 11 58 6 0 5 -3 -1 -6z m647 -36 c0 -6 -9 -2 -20 8
-11 10 -20 23 -20 28 0 6 9 2 20 -8 11 -10 20 -23 20 -28z m-56 -46 c-6 -6
-11 1 -18 29 l-7 25 15 -25 c8 -14 12 -27 10 -29z m-480 -7 c-18 -27 -23 -28
-44 -13 -12 8 -10 9 8 4 20 -6 32 8 15 18 -5 2 -2 2 5 1 6 -2 12 4 12 12 0 8
4 12 10 9 6 -4 4 -16 -6 -31z m453 20 c-3 -3 -12 -4 -19 -1 -8 3 -5 6 6 6 11
1 17 -2 13 -5z m-377 -35 c0 -6 -4 -7 -10 -4 -5 3 -10 1 -10 -6 0 -7 -2 -10
-5 -7 -9 8 6 38 16 32 5 -3 9 -10 9 -15z m276 -36 c-5 -12 -10 -11 -26 10 -25
32 -25 36 0 30 12 -3 21 0 21 8 1 8 4 4 6 -9 3 -13 2 -30 -1 -39z m84 41 c0
-8 -5 -12 -10 -9 -6 4 -8 11 -5 16 9 14 15 11 15 -7z m-333 -16 c-3 -8 -6 -5
-6 6 -1 11 2 17 5 13 3 -3 4 -12 1 -19z m160 -8 c4 -12 3 -13 -5 -1 -6 8 -19
12 -31 8 -12 -3 -19 -1 -15 5 9 14 47 5 51 -12z m-167 -20 c0 -5 -4 -10 -10
-10 -5 0 -10 5 -10 10 0 6 5 10 10 10 6 0 10 -4 10 -10z m145 -28 c-3 -3 -11
0 -18 7 -9 10 -8 11 6 5 10 -3 15 -9 12 -12z"/>
<path d="M2178 9856 c-26 -31 -47 -46 -72 -50 -19 -4 -39 -12 -43 -19 -4 -7
-8 -61 -10 -120 -2 -107 -2 -108 20 -100 12 4 74 7 137 8 l115 0 17 36 c21 46
39 60 66 52 21 -5 24 -12 26 -58 1 -11 7 -20 14 -19 46 4 45 3 38 45 -4 28
-16 51 -35 68 -16 14 -36 41 -45 59 -9 17 -21 32 -25 32 -5 0 -34 25 -64 55
-68 69 -90 71 -139 11z"/>
<path d="M1310 9780 c0 -19 3 -21 12 -12 9 9 9 15 0 24 -9 9 -12 7 -12 -12z"/>
<path d="M1072 9613 c2 -20 8 -38 14 -40 15 -5 25 49 12 65 -19 22 -29 13 -26
-25z"/>
<path d="M1855 9547 c-30 -18 -20 -47 15 -47 16 0 32 5 35 10 3 6 14 10 25 10
10 0 20 7 24 15 3 9 0 15 -8 15 -7 0 -26 2 -42 4 -16 3 -38 -1 -49 -7z"/>
<path d="M1178 9519 c-24 -14 -23 -49 1 -49 28 0 43 23 28 43 -9 12 -16 14
-29 6z"/>
<path d="M1400 10681 c0 -6 5 -13 10 -16 6 -3 10 1 10 9 0 9 -4 16 -10 16 -5
0 -10 -4 -10 -9z"/>
<path d="M11115 10096 c-19 -14 -19 -16 -2 -63 9 -26 17 -57 17 -68 0 -24 18
-45 37 -45 21 0 18 144 -4 170 -21 24 -23 24 -48 6z"/>
<path d="M11144 9826 c-20 -31 -34 -59 -31 -63 20 -20 147 46 147 76 0 23 -4
26 -47 35 -30 7 -34 4 -69 -48z"/>
<path d="M6663 9066 c4 -10 7 -20 7 -22 0 -2 9 -4 20 -4 13 0 20 -7 20 -20 0
-20 9 -24 43 -21 9 1 17 -3 17 -9 0 -7 7 -9 16 -6 9 3 27 -3 41 -14 29 -23 53
-26 53 -7 0 17 -37 50 -73 65 -19 8 -27 18 -23 27 3 9 -1 15 -10 15 -11 0 -13
-6 -9 -20 9 -28 7 -27 -74 15 -32 17 -34 17 -28 1z"/>
<path d="M6800 9066 c0 -2 7 -9 15 -16 12 -10 15 -10 15 4 0 9 -7 16 -15 16
-8 0 -15 -2 -15 -4z"/>
<path d="M6852 9053 c2 -10 11 -19 21 -21 16 -3 17 -1 7 17 -13 25 -33 28 -28
4z"/>
<path d="M6290 9004 c0 -7 54 -53 63 -54 18 0 4 20 -28 39 -19 11 -35 18 -35
15z"/>
<path d="M6922 8988 c6 -18 28 -21 28 -4 0 9 -7 16 -16 16 -9 0 -14 -5 -12
-12z"/>
<path d="M7134 8946 c-7 -28 2 -49 17 -40 6 4 6 11 -2 20 -9 11 -9 17 1 29 8
10 9 15 1 15 -6 0 -13 -11 -17 -24z"/>
<path d="M6950 8945 c0 -8 7 -15 15 -15 9 0 12 6 9 15 -4 8 -10 15 -15 15 -5
0 -9 -7 -9 -15z"/>
<path d="M7037 8937 c-3 -8 3 -13 15 -14 10 -1 18 3 16 9 -6 18 -25 21 -31 5z"/>
<path d="M6895 8930 c-4 -6 -5 -13 -3 -16 2 -2 51 -10 109 -18 124 -17 430
-80 488 -101 23 -8 41 -10 41 -6 0 5 -15 12 -32 15 -31 6 -32 8 -15 21 16 12
14 13 -23 8 -22 -3 -40 -2 -38 3 2 5 -5 20 -15 34 -9 13 -17 19 -17 12 0 -6
-6 -12 -14 -12 -8 0 -17 -8 -19 -17 -3 -10 -5 -7 -4 7 2 32 -15 39 -28 11 -5
-11 -13 -21 -17 -21 -12 0 -9 25 5 39 12 14 11 14 -53 -5 -23 -6 -26 7 -9 38
l12 21 -27 -21 c-15 -11 -33 -19 -41 -16 -7 3 -22 1 -33 -5 -12 -7 -40 -7 -83
0 -35 5 -86 12 -114 16 -27 3 -53 10 -56 16 -4 5 -9 4 -14 -3z m515 -80 c0 -5
-4 -10 -10 -10 -5 0 -10 5 -10 10 0 6 5 10 10 10 6 0 10 -4 10 -10z"/>
<path d="M7098 8913 c7 -3 16 -2 19 1 4 3 -2 6 -13 5 -11 0 -14 -3 -6 -6z"/>
<path d="M6017 8868 c9 -10 23 -18 31 -18 13 0 13 3 -1 18 -10 10 -24 19 -32
19 -13 0 -13 -3 2 -19z"/>
<path d="M6839 8840 c-96 -29 -147 -122 -170 -311 -20 -162 8 -347 66 -439 56
-88 100 -105 334 -126 179 -16 307 -15 372 5 52 16 104 72 148 159 70 141 89
228 71 335 -21 134 -77 234 -152 273 -41 21 -264 73 -408 95 -130 20 -217 23
-261 9z m315 -50 c148 -33 227 -83 273 -174 23 -44 27 -66 31 -166 4 -132 3
-132 -65 0 -33 65 -102 143 -173 198 -64 49 -170 86 -280 97 -110 11 -124 21
-67 49 45 22 171 20 281 -4z m-122 -201 c47 -24 84 -56 76 -65 -4 -3 -17 0
-30 7 -29 16 -227 28 -225 14 1 -5 -5 -10 -13 -10 -8 0 -16 10 -18 23 -3 16 2
22 15 22 11 0 28 7 39 15 28 21 108 19 156 -6z m74 -176 c10 -10 20 -16 23
-14 3 3 19 -15 35 -38 22 -34 31 -62 41 -139 16 -130 -1 -187 -64 -207 -12 -3
-21 -11 -21 -16 0 -5 -21 -9 -47 -9 -44 0 -45 1 -29 19 16 18 15 18 -32 18
-52 0 -76 8 -67 23 7 12 -44 42 -58 33 -8 -4 -7 -1 2 10 9 11 10 17 2 17 -6 0
-11 8 -11 18 0 18 1 18 53 0 28 -10 75 -17 102 -17 28 1 58 -1 68 -5 52 -18
53 -18 35 0 -15 16 -14 18 13 41 20 17 29 34 29 54 0 16 -3 30 -7 30 -44 8
-75 3 -84 -13 -17 -31 -96 -24 -156 15 -10 6 -10 12 -1 26 10 17 14 17 47 4
37 -16 139 -21 159 -9 17 10 15 51 -3 86 -22 43 -68 63 -131 58 -51 -4 -51 -4
-30 13 29 25 108 25 132 2z m-61 -63 c0 -8 -8 -16 -17 -18 -13 -2 -18 3 -18
18 0 15 5 20 18 18 9 -2 17 -10 17 -18z m-175 -200 c0 -5 -4 -10 -10 -10 -5 0
-10 5 -10 10 0 6 5 10 10 10 6 0 10 -4 10 -10z"/>
<path d="M7145 8120 c3 -5 10 -10 16 -10 5 0 9 5 9 10 0 6 -7 10 -16 10 -8 0
-12 -4 -9 -10z"/>
<path d="M7075 8050 c-3 -5 -2 -10 4 -10 5 0 13 5 16 10 3 6 2 10 -4 10 -5 0
-13 -4 -16 -10z"/>
<path d="M7560 8762 c77 -52 122 -132 151 -270 11 -53 25 -103 32 -110 8 -7
29 -15 48 -18 28 -5 41 -1 65 19 31 26 38 38 75 122 12 28 23 53 25 57 2 3 -6
4 -18 1 -13 -3 -20 -3 -16 2 11 12 -27 45 -58 49 -16 2 -45 10 -64 19 -19 8
-40 12 -47 10 -7 -2 -28 7 -46 21 -19 14 -37 26 -41 26 -4 0 -25 18 -47 39
-23 22 -51 42 -63 44 -19 5 -18 4 4 -11z m221 -155 c-13 -13 -26 -3 -16 12 3
6 11 8 17 5 6 -4 6 -10 -1 -17z"/>
<path d="M5626 8721 c-3 -5 1 -12 10 -15 20 -8 29 -1 19 13 -8 13 -22 14 -29
2z"/>
<path d="M8050 8559 c-47 -19 -78 -59 -96 -126 -16 -58 -16 -78 -5 -200 20
-225 34 -272 98 -315 112 -77 386 -113 471 -62 63 37 113 146 134 293 9 65 8
96 -6 177 -9 54 -23 108 -31 120 -19 30 -81 49 -284 90 -179 35 -238 40 -281
23z m440 -193 c-14 -7 -36 -16 -50 -20 -19 -5 -16 -2 10 13 19 11 42 20 50 20
8 0 4 -6 -10 -13z m-454 -157 c9 -16 -5 -24 -18 -11 -7 7 -22 12 -35 12 -22 0
-33 27 -17 43 7 7 59 -26 70 -44z m14 -164 c0 -28 -4 -45 -12 -45 -6 0 -4 -6
6 -13 11 -8 15 -19 10 -30 -8 -22 -19 -15 -38 25 -20 39 -20 53 0 83 24 37 34
31 34 -20z"/>
<path d="M3020 8160 c0 -5 5 -10 11 -10 5 0 7 5 4 10 -3 6 -8 10 -11 10 -2 0
-4 -4 -4 -10z"/>
<path d="M3425 7744 c-167 -41 -228 -131 -229 -339 -1 -90 3 -122 22 -176 34
-100 80 -169 132 -200 141 -85 585 -94 753 -15 67 32 110 79 148 161 95 202
39 432 -125 509 -54 26 -221 55 -234 41 -4 -4 -2 -9 4 -12 10 -3 2 -126 -11
-160 -7 -19 -46 -16 -106 9 -67 27 -87 43 -105 86 -17 41 -6 68 34 84 l27 11
-25 7 c-42 13 -222 9 -285 -6z m244 -315 c49 -16 66 -36 87 -99 28 -85 23
-156 -16 -234 -43 -88 -67 -106 -139 -106 -32 0 -62 5 -69 12 -9 9 -12 9 -12
-2 0 -8 -11 1 -25 20 -32 43 -31 45 3 20 32 -24 89 -35 126 -26 60 15 89 163
46 233 -34 57 -59 66 -160 61 -68 -4 -102 -12 -140 -30 -38 -19 -50 -21 -54
-11 -3 7 0 12 6 10 5 -1 12 7 14 18 1 11 11 25 20 32 10 7 14 13 9 13 -10 0
71 62 105 80 54 29 129 32 199 9z m-221 -334 c-3 -3 -9 2 -12 12 -6 14 -5 15
5 6 7 -7 10 -15 7 -18z m-28 -16 c0 -22 11 -24 28 -7 9 9 12 9 12 0 0 -7 -4
-12 -10 -12 -5 0 -10 -7 -10 -16 0 -8 5 -12 10 -9 6 3 10 1 10 -4 0 -6 7 -11
15 -11 8 0 15 -5 15 -11 0 -6 -9 -8 -20 -5 -11 3 -29 9 -40 12 -11 3 -20 11
-20 18 0 8 -7 19 -15 26 -8 7 -15 20 -15 29 0 14 2 14 10 1 8 -13 10 -12 10 3
0 10 5 15 10 12 6 -3 10 -15 10 -26z"/>
<path d="M4912 7667 c-52 -16 -126 -89 -152 -149 -32 -72 -31 -147 4 -283 33
-130 60 -186 113 -237 37 -36 42 -38 142 -49 58 -6 184 -9 285 -7 157 4 189 8
238 27 70 27 122 84 143 155 19 64 19 213 0 294 -30 127 -76 187 -165 212 -48
14 -179 35 -184 29 -3 -3 0 -72 7 -154 l12 -150 -27 -1 c-18 -1 -28 4 -28 13
0 14 -86 185 -119 238 -25 39 -25 42 2 51 21 7 21 7 2 15 -29 11 -235 9 -273
-4z m104 -109 c87 -51 112 -113 56 -142 -19 -10 -33 -11 -45 -5 -10 6 -48 13
-86 16 -59 5 -75 3 -105 -15 l-35 -21 1 37 c1 20 7 51 14 68 7 17 10 35 6 39
-4 5 -1 5 6 1 7 -4 12 -1 12 8 0 19 16 21 24 4 4 -7 5 -4 3 7 -3 18 3 20 54
22 45 2 66 -2 95 -19z m5 -220 c45 -48 108 -230 112 -329 2 -41 1 -42 -31 -46
-23 -3 -33 0 -31 9 1 7 0 20 -3 28 -3 8 -13 50 -23 93 -18 83 -45 126 -96 152
-37 19 -89 19 -117 -1 -12 -8 -22 -10 -22 -5 0 6 5 11 11 11 8 0 7 6 -2 17
-12 15 -12 16 2 11 11 -4 16 -1 15 10 0 9 10 22 24 29 14 7 19 13 12 13 -7 0
-10 5 -7 10 4 6 11 8 16 5 5 -4 9 -1 9 4 0 7 23 11 55 11 43 0 59 -5 76 -22z
m309 2 c-8 -5 -19 -10 -25 -10 -5 0 -3 5 5 10 8 5 20 10 25 10 6 0 3 -5 -5
-10z m70 6 c0 -2 -7 -7 -16 -10 -8 -3 -12 -2 -9 4 6 10 25 14 25 6z m-41 -20
c-9 -8 -93 -48 -87 -41 15 16 63 44 77 44 8 1 12 -1 10 -3z m-363 -151 c17
-41 19 -109 3 -99 -6 3 -9 17 -6 31 3 18 1 23 -10 19 -11 -4 -13 -1 -8 14 5
15 3 18 -9 14 -9 -3 -16 -1 -16 5 0 6 4 11 9 11 6 0 9 9 8 20 -1 11 -7 20 -14
20 -7 0 -13 5 -13 10 0 22 42 -12 56 -45z"/>
<path d="M4393 7003 c4 -3 -1 -15 -10 -26 -14 -15 -14 -18 -3 -13 8 3 23 9 33
12 24 9 21 34 -5 34 -12 0 -18 -3 -15 -7z"/>
<path d="M6257 5654 c-9 -9 4 -35 14 -28 5 3 9 12 9 20 0 14 -12 19 -23 8z"/>
<path d="M3425 5590 c3 -5 10 -10 16 -10 5 0 9 5 9 10 0 6 -7 10 -16 10 -8 0
-12 -4 -9 -10z"/>
<path d="M6270 5441 c0 -5 -3 -16 -6 -25 -4 -11 -1 -16 10 -16 10 0 16 9 16
25 0 14 -4 25 -10 25 -5 0 -10 -4 -10 -9z"/>
<path d="M8978 5393 c39 -2 105 -2 145 0 39 1 7 3 -73 3 -80 0 -112 -2 -72 -3z"/>
<path d="M9457 5236 c3 -19 0 -85 -6 -147 -6 -63 -17 -242 -26 -399 -8 -157
-22 -346 -30 -420 -8 -74 -28 -270 -45 -435 -17 -165 -35 -309 -39 -321 -9
-20 2 -54 13 -43 21 20 108 778 146 1269 5 69 16 197 25 285 8 88 15 179 15
203 0 40 -1 42 -29 42 -28 0 -29 -2 -24 -34z"/>
<path d="M2570 5249 c0 -5 5 -7 10 -4 6 3 10 8 10 11 0 2 -4 4 -10 4 -5 0 -10
-5 -10 -11z"/>
<path d="M9597 5243 c-3 -5 -8 -48 -12 -98 -11 -142 -73 -706 -95 -860 -10
-77 -29 -221 -40 -320 -12 -99 -35 -260 -52 -358 -28 -164 -30 -227 -9 -227 4
0 11 33 14 73 3 39 19 164 36 277 16 113 44 318 60 455 17 138 44 347 60 465
44 326 73 579 66 590 -7 12 -22 13 -28 3z"/>
<path d="M6250 4300 c0 -5 5 -10 10 -10 6 0 10 5 10 10 0 6 -4 10 -10 10 -5 0
-10 -4 -10 -10z"/>
<path d="M6070 4254 c0 -8 5 -12 10 -9 6 4 8 11 5 16 -9 14 -15 11 -15 -7z"/>
<path d="M6231 4238 c-11 -31 -11 -31 9 -13 21 19 27 45 11 45 -5 0 -14 -14
-20 -32z"/>
<path d="M6124 4198 c-3 -4 0 -8 6 -8 7 0 8 -6 0 -19 -5 -11 -10 -22 -10 -25
0 -12 24 -6 41 10 10 9 30 17 44 17 19 0 23 2 15 12 -12 15 -89 25 -96 13z"/>
<path d="M6402 4173 c-27 -34 -28 -43 -1 -43 11 0 34 -14 51 -30 17 -17 33
-29 35 -26 3 3 -4 24 -15 48 -11 24 -22 51 -25 61 -9 24 -20 21 -45 -10z"/>
<path d="M6095 4180 c3 -5 8 -10 11 -10 2 0 4 5 4 10 0 6 -5 10 -11 10 -5 0
-7 -4 -4 -10z"/>
<path d="M6204 4103 c1 -13 -5 -17 -21 -15 -13 2 -23 -1 -23 -6 0 -20 -29 -20
-53 -1 -35 26 -47 24 -47 -10 0 -31 30 -66 37 -43 6 17 23 15 23 -3 0 -8 -4
-15 -9 -15 -5 0 -11 -14 -13 -30 -4 -25 -2 -30 11 -24 51 21 53 20 65 -38 5
-22 12 -28 34 -28 46 0 56 14 56 74 0 31 3 56 7 56 4 0 10 7 13 16 8 21 -25
48 -36 31 -5 -8 -12 0 -19 21 -12 34 -28 43 -25 15z"/>
<path d="M5970 4095 c-7 -8 -19 -15 -26 -15 -8 0 -14 -7 -14 -16 0 -11 -6 -15
-19 -11 -14 3 -17 0 -14 -14 3 -11 0 -19 -6 -19 -6 0 -11 -8 -11 -19 0 -26 55
-49 81 -33 14 9 20 9 25 0 4 -7 3 -13 -3 -15 -8 -3 -7 -15 3 -38 17 -43 17
-45 0 -45 -8 0 -27 16 -41 35 -27 35 -63 54 -74 39 -18 -25 -45 -30 -75 -15
l-31 16 38 9 c20 5 37 16 37 23 0 11 -11 13 -52 9 -63 -7 -92 -37 -47 -49 28
-7 15 -27 -16 -25 -13 1 -22 5 -19 9 2 4 -6 9 -18 13 -15 3 -30 -2 -43 -14
-12 -11 -25 -17 -28 -13 -16 15 -5 -18 19 -61 28 -51 17 -62 -27 -28 -13 10
-38 26 -56 34 -30 15 -33 15 -38 -2 -3 -10 0 -29 6 -43 10 -22 16 -25 42 -20
l30 6 -7 -56 c-7 -56 -7 -57 17 -57 14 0 30 -7 37 -15 8 -10 17 -12 28 -6 9 5
27 5 44 -1 39 -14 53 -6 53 28 0 16 5 28 10 27 6 -1 22 -3 35 -6 14 -2 19 -2
13 0 -7 3 -13 13 -13 24 0 22 -11 24 -28 7 -17 -17 -15 3 3 29 13 18 13 22 0
33 -13 11 -18 10 -28 -3 -16 -20 -57 -32 -57 -16 0 6 8 17 17 24 16 12 16 14
-2 31 -17 17 -17 19 -2 22 9 2 17 10 17 18 0 8 6 14 14 14 19 0 46 -27 46 -47
0 -11 7 -13 30 -8 24 5 30 3 30 -10 0 -24 24 -13 28 13 4 28 18 28 45 -1 38
-41 66 -51 87 -32 10 9 24 15 31 13 7 -2 24 6 37 19 l26 24 -24 16 c-22 16
-22 17 -4 30 18 13 18 15 2 24 -10 6 -18 18 -19 27 0 10 -3 12 -6 5 -2 -7 -12
-13 -20 -13 -9 0 -13 6 -10 14 4 10 -5 16 -28 20 -26 5 -34 12 -38 34 -7 35
-1 41 18 16 14 -18 14 -18 15 0 0 11 5 16 13 13 7 -3 21 1 32 9 14 11 15 14 4
16 -8 0 -18 2 -24 3 -5 2 -16 3 -24 4 -7 1 -11 7 -7 16 3 8 4 15 2 15 -2 0 -9
-7 -16 -15z m-105 -210 c0 -13 -8 -21 -21 -23 -18 -3 -21 1 -16 23 5 31 37 31
37 0z m-175 -126 c0 -20 -21 -49 -35 -49 -18 0 -20 31 -3 48 15 15 38 16 38 1z"/>
<path d="M6357 4090 c-3 -11 -1 -20 4 -20 5 0 9 9 9 20 0 11 -2 20 -4 20 -2 0
-6 -9 -9 -20z"/>
<path d="M6936 4065 c4 -8 10 -15 15 -15 5 0 9 7 9 15 0 8 -7 15 -15 15 -9 0
-12 -6 -9 -15z"/>
<path d="M5670 3991 c-6 -12 -7 -21 -1 -21 10 0 24 30 17 37 -2 3 -9 -5 -16
-16z"/>
<path d="M6435 4000 c-3 -5 1 -10 10 -10 9 0 13 5 10 10 -3 6 -8 10 -10 10 -2
0 -7 -4 -10 -10z"/>
<path d="M6773 3968 c-13 -6 -23 -14 -23 -18 0 -11 32 -23 53 -21 9 1 17 -3
17 -8 0 -19 49 -12 60 8 15 29 13 31 -25 31 -19 0 -35 5 -35 10 0 13 -19 12
-47 -2z"/>
<path d="M6422 3935 c3 -34 6 -40 25 -38 11 1 26 -4 33 -12 15 -18 6 -47 -12
-40 -7 3 -18 -5 -23 -17 -6 -13 -16 -22 -23 -21 -8 2 -10 -7 -6 -26 4 -18 1
-32 -6 -36 -9 -6 -6 -13 10 -25 16 -12 23 -27 22 -48 0 -17 6 -36 14 -43 8 -6
14 -23 14 -38 0 -62 9 -72 59 -69 45 3 46 4 47 38 0 21 -7 42 -18 53 -10 10
-18 24 -18 33 0 10 -7 13 -25 8 -15 -4 -25 -2 -26 5 -3 26 -4 30 -11 37 -15
15 -7 36 23 65 23 22 41 29 70 29 32 0 43 -6 70 -40 40 -50 59 -52 59 -6 0 18
7 39 15 46 8 7 15 19 15 26 0 8 11 16 25 20 24 6 55 38 55 57 0 5 -6 7 -12 4
-7 -2 -24 0 -37 5 -28 10 -51 -5 -51 -33 0 -11 -10 -27 -21 -37 -12 -9 -28
-23 -36 -31 -18 -17 -26 -9 -48 54 -11 33 -26 55 -41 62 -19 9 -24 8 -24 -2 0
-11 -20 -25 -37 -25 -3 0 -23 19 -45 43 l-39 42 3 -40z m111 -131 c-4 -10 -9
-12 -15 -6 -12 12 -1 35 12 27 5 -3 6 -13 3 -21z"/>
<path d="M7104 3879 c-8 -13 14 -56 32 -63 21 -8 28 33 8 55 -19 22 -30 24
-40 8z m24 -24 c-3 -3 -9 2 -12 12 -6 14 -5 15 5 6 7 -7 10 -15 7 -18z"/>
<path d="M6287 3831 l-28 -51 33 -13 c32 -13 35 -12 76 22 44 37 52 51 27 51
-8 0 -15 5 -15 10 0 6 -13 10 -29 10 -16 0 -31 5 -33 11 -2 6 -16 -12 -31 -40z"/>
<path d="M7220 3828 c0 -47 17 -58 41 -27 22 28 19 45 -7 42 -10 -1 -22 4 -26
10 -4 7 -8 -5 -8 -25z"/>
<path d="M6961 3840 c-1 -18 16 -46 23 -40 2 3 -2 16 -9 30 -8 15 -14 19 -14
10z"/>
<path d="M9125 3811 c-3 -5 -1 -12 5 -16 5 -3 10 1 10 9 0 18 -6 21 -15 7z"/>
<path d="M6225 3780 c-3 -5 -1 -10 4 -10 6 0 11 5 11 10 0 6 -2 10 -4 10 -3 0
-8 -4 -11 -10z"/>
<path d="M6180 3771 c0 -9 -9 -11 -30 -6 -35 8 -51 -15 -32 -46 14 -22 0 -33
-32 -25 -16 4 -29 -1 -41 -14 -17 -19 -17 -20 1 -26 102 -33 107 -38 99 -90
-4 -32 -2 -43 10 -47 8 -4 15 -11 15 -17 0 -6 -5 -8 -10 -5 -13 8 -50 -4 -50
-16 0 -5 14 -9 30 -9 17 0 30 4 30 10 0 12 70 60 88 60 7 0 17 -11 23 -24 20
-43 79 -42 79 1 0 20 4 24 19 20 17 -4 18 -1 10 26 -5 18 -7 39 -4 48 8 25
-29 31 -49 7 -9 -10 -21 -16 -26 -13 -6 3 -7 -1 -3 -10 4 -13 1 -16 -13 -13
-11 2 -18 11 -18 21 1 12 -6 17 -22 17 -13 0 -25 5 -25 10 -1 6 -2 14 -3 20 0
5 -7 15 -13 22 -7 6 -13 16 -13 22 0 5 -7 18 -16 28 -14 14 -14 20 -4 33 7 9
10 18 6 22 -3 3 -6 1 -6 -6z"/>
<path d="M6780 3720 l-21 -30 22 -8 c31 -12 83 0 87 20 4 20 -24 48 -48 48
-10 0 -28 -14 -40 -30z"/>
<path d="M9070 3742 c0 -11 141 -154 147 -148 3 2 -29 39 -71 80 -42 42 -76
72 -76 68z"/>
<path d="M6930 3721 c0 -6 -7 -11 -15 -11 -18 0 -19 -12 -3 -28 17 -17 45 -15
52 4 4 9 5 17 4 18 -2 1 -11 8 -20 15 -12 9 -18 10 -18 2z"/>
<path d="M7580 3719 c0 -5 5 -7 10 -4 6 3 10 8 10 11 0 2 -4 4 -10 4 -5 0 -10
-5 -10 -11z"/>
<path d="M7330 3681 c0 -12 35 -20 50 -11 8 5 7 9 -5 14 -24 9 -45 8 -45 -3z"/>
<path d="M7521 3657 c-13 -16 -5 -27 20 -27 12 0 16 6 12 20 -6 23 -16 25 -32
7z"/>
<path d="M7666 3642 c-2 -4 4 -22 15 -38 18 -29 21 -30 53 -20 19 6 34 11 33
11 -1 1 -23 14 -49 28 -26 15 -49 24 -52 19z"/>
<path d="M7174 3625 c-20 -10 -20 -13 -8 -30 12 -17 16 -18 24 -5 5 8 7 17 4
21 -2 4 5 5 16 2 11 -3 20 -1 20 5 0 15 -33 19 -56 7z"/>
<path d="M5770 3619 c0 -5 5 -7 10 -4 6 3 10 8 10 11 0 2 -4 4 -10 4 -5 0 -10
-5 -10 -11z"/>
<path d="M6610 3610 c0 -11 2 -20 4 -20 2 0 11 -3 20 -6 11 -4 16 0 16 14 0
11 -7 23 -16 26 -23 9 -24 8 -24 -14z"/>
<path d="M7106 3598 c3 -4 9 -8 15 -8 5 0 9 4 9 8 0 5 -7 9 -15 9 -8 0 -12 -4
-9 -9z"/>
<path d="M7300 3597 c0 -20 21 -36 37 -30 12 5 14 1 8 -15 -7 -24 7 -28 53
-16 22 6 22 7 4 18 -10 6 -34 21 -53 33 -39 26 -49 28 -49 10z"/>
<path d="M7080 3586 c0 -9 5 -16 10 -16 6 0 10 4 10 9 0 6 -4 13 -10 16 -5 3
-10 -1 -10 -9z"/>
<path d="M6936 3582 c-3 -5 -1 -24 4 -43 6 -19 10 -36 10 -38 0 -2 -15 -1 -32
3 -18 3 -40 1 -48 -4 -10 -7 5 -10 52 -10 l68 0 -10 26 c-15 38 -13 44 14 44
14 0 28 5 32 11 4 7 -5 10 -28 8 -18 -2 -39 0 -45 4 -6 4 -14 3 -17 -1z"/>
<path d="M6777 3533 c-9 -19 -8 -26 4 -34 21 -13 39 -11 39 6 0 8 5 15 10 15
6 0 10 8 10 19 0 29 -49 25 -63 -6z"/>
<path d="M6876 3535 c4 -8 10 -15 15 -15 5 0 9 7 9 15 0 8 -7 15 -15 15 -9 0
-12 -6 -9 -15z"/>
<path d="M9260 3541 c0 -6 4 -13 10 -16 6 -3 7 1 4 9 -7 18 -14 21 -14 7z"/>
<path d="M7188 3513 c7 -3 16 -2 19 1 4 3 -2 6 -13 5 -11 0 -14 -3 -6 -6z"/>
<path d="M6670 3500 c0 -6 7 -10 15 -10 8 0 15 2 15 4 0 2 -7 6 -15 10 -8 3
-15 1 -15 -4z"/>
<path d="M3790 2289 c0 -5 5 -7 10 -4 6 3 10 8 10 11 0 2 -4 4 -10 4 -5 0 -10
-5 -10 -11z"/>
<path d="M3835 2160 c-3 -5 -1 -10 4 -10 6 0 11 5 11 10 0 6 -2 10 -4 10 -3 0
-8 -4 -11 -10z"/>
<path d="M3635 2118 c-6 -16 0 -71 9 -87 4 -6 14 -11 23 -11 12 0 14 7 9 38
-10 56 -16 72 -27 72 -5 0 -12 -6 -14 -12z"/>
<path d="M11616 6771 c-26 -28 -18 -85 12 -89 32 -5 52 15 52 52 0 53 -33 72
-64 37z"/>
<path d="M2945 6150 c3 -5 11 -10 16 -10 6 0 7 5 4 10 -3 6 -11 10 -16 10 -6
0 -7 -4 -4 -10z"/>
<path d="M3035 5960 c-10 -11 -16 -23 -12 -26 9 -9 47 16 47 31 0 21 -14 19
-35 -5z"/>
<path d="M8840 5116 c0 -20 2 -36 4 -36 8 0 12 61 4 66 -4 3 -8 -11 -8 -30z"/>
<path d="M8542 2161 c13 -22 28 -28 28 -11 0 5 -9 14 -20 20 -19 10 -20 10 -8
-9z"/>
<path d="M8641 2124 c0 -11 3 -14 6 -6 3 7 2 16 -1 19 -3 4 -6 -2 -5 -13z"/>
<path d="M8794 2114 c3 -9 6 -18 6 -20 0 -3 4 -3 10 1 11 7 2 35 -12 35 -6 0
-7 -7 -4 -16z"/>
<path d="M9606 1591 c-3 -4 6 -6 19 -3 14 2 25 6 25 8 0 8 -39 4 -44 -5z"/>
<path d="M940 1540 c0 -5 5 -10 11 -10 5 0 7 5 4 10 -3 6 -8 10 -11 10 -2 0
-4 -4 -4 -10z"/>
<path d="M1126 1247 c3 -10 9 -15 12 -12 3 3 0 11 -7 18 -10 9 -11 8 -5 -6z"/>
<path d="M1311 1154 c0 -11 3 -14 6 -6 3 7 2 16 -1 19 -3 4 -6 -2 -5 -13z"/>
<path d="M1315 1100 c-3 -6 1 -7 9 -4 18 7 21 14 7 14 -6 0 -13 -4 -16 -10z"/>
<path d="M967 1137 c-3 -8 1 -14 8 -14 7 0 11 6 8 14 -3 7 -6 13 -8 13 -2 0
-5 -6 -8 -13z"/>
<path d="M1205 620 c3 -5 8 -10 11 -10 2 0 4 5 4 10 0 6 -5 10 -11 10 -5 0 -7
-4 -4 -10z"/>
<path d="M12706 10128 c-22 -12 -21 -48 2 -48 9 0 32 -9 50 -20 18 -11 35 -20
37 -20 3 0 5 17 5 38 0 36 -2 38 -39 48 -24 7 -46 7 -55 2z"/>
<path d="M12430 9990 c-11 -20 -4 -66 10 -75 11 -7 40 5 40 16 0 5 -9 18 -21
30 -11 11 -18 27 -15 35 8 21 -2 17 -14 -6z"/>
<path d="M12236 9802 c-8 -13 43 -34 66 -26 10 3 17 11 15 17 -4 14 -73 22
-81 9z"/>
<path d="M2213 7756 c4 -10 -6 -17 -31 -24 -36 -10 -36 -10 -7 -11 18 0 42 10
60 24 l30 25 -29 0 c-20 0 -27 -4 -23 -14z"/>
<path d="M1835 7216 c-17 -12 -14 -13 31 -11 63 4 62 4 44 15 -21 14 -53 12
-75 -4z"/>
<path d="M1930 7220 c0 -5 5 -10 11 -10 5 0 7 5 4 10 -3 6 -8 10 -11 10 -2 0
-4 -4 -4 -10z"/>
</g>
</svg>
